<svg width="92" height="59" viewBox="0 0 92 59" fill="none" xmlns="http://www.w3.org/2000/svg">
<path d="M51.5925 6.76003L54.24 9.40628M53.295 4.42878L46.1363 11.5875C45.7664 11.9569 45.5141 12.4275 45.4113 12.94L44.75 16.25L48.06 15.5875C48.5725 15.485 49.0425 15.2338 49.4125 14.8638L56.5713 7.70503C56.7864 7.48991 56.957 7.23452 57.0734 6.95345C57.1899 6.67238 57.2498 6.37113 57.2498 6.0669C57.2498 5.76267 57.1899 5.46143 57.0734 5.18036C56.957 4.89929 56.7864 4.6439 56.5713 4.42878C56.3561 4.21366 56.1007 4.04301 55.8197 3.92659C55.5386 3.81017 55.2374 3.75024 54.9331 3.75024C54.6289 3.75024 54.3276 3.81017 54.0466 3.92659C53.7655 4.04301 53.5101 4.21366 53.295 4.42878Z" stroke="#E2201F" stroke-width="2.33" stroke-linecap="round" stroke-linejoin="round"/>
<path d="M54.75 18.75V22.5C54.75 23.163 54.4866 23.7989 54.0178 24.2678C53.5489 24.7366 52.913 25 52.25 25H38.5C37.837 25 37.2011 24.7366 36.7322 24.2678C36.2634 23.7989 36 23.163 36 22.5V8.75C36 8.08696 36.2634 7.45107 36.7322 6.98223C37.2011 6.51339 37.837 6.25 38.5 6.25H42.25" stroke="#E2201F" stroke-width="2.33" stroke-linecap="round" stroke-linejoin="round"/>
<path d="M1.27841 55V43.3636H8.57386V44.875H3.03409V48.4205H8.19318V49.9261H3.03409V53.4886H8.64205V55H1.27841ZM14.0497 55.1705C13.3452 55.1705 12.7164 54.9905 12.1634 54.6307C11.6141 54.267 11.1823 53.75 10.8679 53.0795C10.5573 52.4053 10.402 51.5966 10.402 50.6534C10.402 49.7102 10.5592 48.9034 10.8736 48.233C11.1918 47.5625 11.6274 47.0492 12.1804 46.6932C12.7334 46.3371 13.3603 46.1591 14.0611 46.1591C14.6027 46.1591 15.0384 46.25 15.3679 46.4318C15.7012 46.6098 15.9588 46.8182 16.1406 47.0568C16.3262 47.2955 16.4702 47.5057 16.5724 47.6875H16.6747V43.3636H18.3736V55H16.7145V53.642H16.5724C16.4702 53.8277 16.3224 54.0398 16.1293 54.2784C15.9399 54.517 15.6785 54.7254 15.3452 54.9034C15.0118 55.0814 14.58 55.1705 14.0497 55.1705ZM14.4247 53.7216C14.9134 53.7216 15.3262 53.5928 15.6634 53.3352C16.0043 53.0739 16.2618 52.7121 16.4361 52.25C16.6141 51.7879 16.7031 51.25 16.7031 50.6364C16.7031 50.0303 16.616 49.5 16.4418 49.0455C16.2675 48.5909 16.0118 48.2367 15.6747 47.983C15.3376 47.7292 14.9209 47.6023 14.4247 47.6023C13.9134 47.6023 13.4872 47.7348 13.1463 48C12.8054 48.2652 12.5478 48.6269 12.3736 49.0852C12.2031 49.5436 12.1179 50.0606 12.1179 50.6364C12.1179 51.2197 12.205 51.7443 12.3793 52.2102C12.5535 52.6761 12.8111 53.0455 13.152 53.3182C13.4967 53.5871 13.9209 53.7216 14.4247 53.7216ZM20.7983 55V46.2727H22.4972V55H20.7983ZM21.6562 44.9261C21.3608 44.9261 21.107 44.8277 20.8949 44.6307C20.6866 44.4299 20.5824 44.1913 20.5824 43.9148C20.5824 43.6345 20.6866 43.3958 20.8949 43.1989C21.107 42.9981 21.3608 42.8977 21.6562 42.8977C21.9517 42.8977 22.2036 42.9981 22.4119 43.1989C22.6241 43.3958 22.7301 43.6345 22.7301 43.9148C22.7301 44.1913 22.6241 44.4299 22.4119 44.6307C22.2036 44.8277 21.9517 44.9261 21.6562 44.9261ZM28.8565 46.2727V47.6364H24.0895V46.2727H28.8565ZM25.3679 44.1818H27.0668V52.4375C27.0668 52.767 27.116 53.0152 27.2145 53.1818C27.313 53.3447 27.4399 53.4564 27.5952 53.517C27.7543 53.5739 27.9266 53.6023 28.1122 53.6023C28.2486 53.6023 28.3679 53.5928 28.4702 53.5739C28.5724 53.5549 28.652 53.5398 28.7088 53.5284L29.0156 54.9318C28.9171 54.9697 28.777 55.0076 28.5952 55.0455C28.4134 55.0871 28.1861 55.1098 27.9134 55.1136C27.4664 55.1212 27.0497 55.0417 26.6634 54.875C26.277 54.7083 25.9645 54.4508 25.7259 54.1023C25.4872 53.7538 25.3679 53.3163 25.3679 52.7898V44.1818ZM35.1676 42.8182L31.4176 56.75H29.9006L33.6506 42.8182H35.1676ZM44.2301 43.3636H45.9915V51.017C45.9915 51.8314 45.8002 52.553 45.4176 53.1818C45.035 53.8068 44.4972 54.2992 43.804 54.6591C43.1108 55.0152 42.2983 55.1932 41.3665 55.1932C40.4384 55.1932 39.6278 55.0152 38.9347 54.6591C38.2415 54.2992 37.7036 53.8068 37.321 53.1818C36.9384 52.553 36.7472 51.8314 36.7472 51.017V43.3636H38.5028V50.875C38.5028 51.4015 38.6184 51.8693 38.8494 52.2784C39.0843 52.6875 39.4157 53.0095 39.8438 53.2443C40.2718 53.4754 40.7794 53.5909 41.3665 53.5909C41.9574 53.5909 42.4669 53.4754 42.8949 53.2443C43.3267 53.0095 43.6563 52.6875 43.8835 52.2784C44.1146 51.8693 44.2301 51.4015 44.2301 50.875V43.3636ZM48.4077 58.2727V46.2727H50.0668V47.6875H50.2088C50.3073 47.5057 50.4493 47.2955 50.6349 47.0568C50.8205 46.8182 51.0781 46.6098 51.4077 46.4318C51.7372 46.25 52.1728 46.1591 52.7145 46.1591C53.419 46.1591 54.0478 46.3371 54.6009 46.6932C55.1539 47.0492 55.5876 47.5625 55.902 48.233C56.2202 48.9034 56.3793 49.7102 56.3793 50.6534C56.3793 51.5966 56.2221 52.4053 55.9077 53.0795C55.5933 53.75 55.1615 54.267 54.6122 54.6307C54.063 54.9905 53.4361 55.1705 52.7315 55.1705C52.2012 55.1705 51.7675 55.0814 51.4304 54.9034C51.0971 54.7254 50.8357 54.517 50.6463 54.2784C50.4569 54.0398 50.3111 53.8277 50.2088 53.642H50.1065V58.2727H48.4077ZM50.0724 50.6364C50.0724 51.25 50.1615 51.7879 50.3395 52.25C50.5175 52.7121 50.7751 53.0739 51.1122 53.3352C51.4493 53.5928 51.8622 53.7216 52.3509 53.7216C52.8584 53.7216 53.2827 53.5871 53.6236 53.3182C53.9645 53.0455 54.2221 52.6761 54.3963 52.2102C54.5743 51.7443 54.6634 51.2197 54.6634 50.6364C54.6634 50.0606 54.5762 49.5436 54.402 49.0852C54.2315 48.6269 53.974 48.2652 53.6293 48C53.2884 47.7348 52.8622 47.6023 52.3509 47.6023C51.8584 47.6023 51.4418 47.7292 51.1009 47.983C50.7637 48.2367 50.508 48.5909 50.3338 49.0455C50.1596 49.5 50.0724 50.0303 50.0724 50.6364ZM61.5497 55.1705C60.8452 55.1705 60.2164 54.9905 59.6634 54.6307C59.1141 54.267 58.6823 53.75 58.3679 53.0795C58.0573 52.4053 57.902 51.5966 57.902 50.6534C57.902 49.7102 58.0592 48.9034 58.3736 48.233C58.6918 47.5625 59.1274 47.0492 59.6804 46.6932C60.2334 46.3371 60.8603 46.1591 61.5611 46.1591C62.1027 46.1591 62.5384 46.25 62.8679 46.4318C63.2012 46.6098 63.4588 46.8182 63.6406 47.0568C63.8262 47.2955 63.9702 47.5057 64.0724 47.6875H64.1747V43.3636H65.8736V55H64.2145V53.642H64.0724C63.9702 53.8277 63.8224 54.0398 63.6293 54.2784C63.4399 54.517 63.1785 54.7254 62.8452 54.9034C62.5118 55.0814 62.08 55.1705 61.5497 55.1705ZM61.9247 53.7216C62.4134 53.7216 62.8262 53.5928 63.1634 53.3352C63.5043 53.0739 63.7618 52.7121 63.9361 52.25C64.1141 51.7879 64.2031 51.25 64.2031 50.6364C64.2031 50.0303 64.116 49.5 63.9418 49.0455C63.7675 48.5909 63.5118 48.2367 63.1747 47.983C62.8376 47.7292 62.4209 47.6023 61.9247 47.6023C61.4134 47.6023 60.9872 47.7348 60.6463 48C60.3054 48.2652 60.0478 48.6269 59.8736 49.0852C59.7031 49.5436 59.6179 50.0606 59.6179 50.6364C59.6179 51.2197 59.705 51.7443 59.8793 52.2102C60.0535 52.6761 60.3111 53.0455 60.652 53.3182C60.9967 53.5871 61.4209 53.7216 61.9247 53.7216ZM70.8381 55.1932C70.285 55.1932 69.785 55.0909 69.3381 54.8864C68.8911 54.678 68.5369 54.3769 68.2756 53.983C68.018 53.589 67.8892 53.1061 67.8892 52.5341C67.8892 52.0417 67.9839 51.6364 68.1733 51.3182C68.3627 51 68.6184 50.7481 68.9403 50.5625C69.2623 50.3769 69.6222 50.2367 70.0199 50.142C70.4176 50.0473 70.8229 49.9754 71.2358 49.9261C71.7585 49.8655 72.1828 49.8163 72.5085 49.7784C72.8343 49.7367 73.071 49.6705 73.2188 49.5795C73.3665 49.4886 73.4403 49.3409 73.4403 49.1364V49.0966C73.4403 48.6004 73.3002 48.2159 73.0199 47.9432C72.7434 47.6705 72.3305 47.5341 71.7812 47.5341C71.2093 47.5341 70.7585 47.661 70.429 47.9148C70.1032 48.1648 69.8778 48.4432 69.7528 48.75L68.1562 48.3864C68.3456 47.8561 68.6222 47.428 68.9858 47.1023C69.3532 46.7727 69.7756 46.5341 70.2528 46.3864C70.7301 46.2348 71.232 46.1591 71.7585 46.1591C72.107 46.1591 72.4763 46.2008 72.8665 46.2841C73.2604 46.3636 73.6278 46.5114 73.9688 46.7273C74.3134 46.9432 74.5956 47.2519 74.8153 47.6534C75.035 48.0511 75.1449 48.5682 75.1449 49.2045V55H73.4858V53.8068H73.4176C73.3078 54.0265 73.143 54.2424 72.9233 54.4545C72.7036 54.6667 72.4214 54.8428 72.0767 54.983C71.732 55.1231 71.3191 55.1932 70.8381 55.1932ZM71.2074 53.8295C71.6771 53.8295 72.0786 53.7367 72.4119 53.5511C72.7491 53.3655 73.0047 53.1231 73.179 52.8239C73.357 52.5208 73.446 52.197 73.446 51.8523V50.7273C73.3854 50.7879 73.268 50.8447 73.0938 50.8977C72.9233 50.947 72.7282 50.9905 72.5085 51.0284C72.2888 51.0625 72.0748 51.0947 71.8665 51.125C71.6581 51.1515 71.4839 51.1742 71.3438 51.1932C71.0142 51.2348 70.7131 51.3049 70.4403 51.4034C70.1714 51.5019 69.9555 51.6439 69.7926 51.8295C69.6335 52.0114 69.554 52.2538 69.554 52.5568C69.554 52.9773 69.7093 53.2955 70.0199 53.5114C70.3305 53.7235 70.7263 53.8295 71.2074 53.8295ZM81.4815 46.2727V47.6364H76.7145V46.2727H81.4815ZM77.9929 44.1818H79.6918V52.4375C79.6918 52.767 79.741 53.0152 79.8395 53.1818C79.938 53.3447 80.0649 53.4564 80.2202 53.517C80.3793 53.5739 80.5516 53.6023 80.7372 53.6023C80.8736 53.6023 80.9929 53.5928 81.0952 53.5739C81.1974 53.5549 81.277 53.5398 81.3338 53.5284L81.6406 54.9318C81.5421 54.9697 81.402 55.0076 81.2202 55.0455C81.0384 55.0871 80.8111 55.1098 80.5384 55.1136C80.0914 55.1212 79.6747 55.0417 79.2884 54.875C78.902 54.7083 78.5895 54.4508 78.3509 54.1023C78.1122 53.7538 77.9929 53.3163 77.9929 52.7898V44.1818ZM87.0284 55.1761C86.1686 55.1761 85.428 54.9924 84.8068 54.625C84.1894 54.2538 83.7121 53.733 83.375 53.0625C83.0417 52.3883 82.875 51.5985 82.875 50.6932C82.875 49.7992 83.0417 49.0114 83.375 48.3295C83.7121 47.6477 84.1818 47.1155 84.7841 46.733C85.3902 46.3504 86.0985 46.1591 86.9091 46.1591C87.4015 46.1591 87.8788 46.2405 88.3409 46.4034C88.803 46.5663 89.2178 46.822 89.5852 47.1705C89.9527 47.5189 90.2424 47.9716 90.4545 48.5284C90.6667 49.0814 90.7727 49.7538 90.7727 50.5455V51.1477H83.8352V49.875H89.108C89.108 49.428 89.017 49.0322 88.8352 48.6875C88.6534 48.339 88.3977 48.0644 88.0682 47.8636C87.7424 47.6629 87.3598 47.5625 86.9205 47.5625C86.4432 47.5625 86.0265 47.6799 85.6705 47.9148C85.3182 48.1458 85.0455 48.4489 84.8523 48.8239C84.6629 49.1951 84.5682 49.5985 84.5682 50.0341V51.0284C84.5682 51.6117 84.6705 52.108 84.875 52.517C85.0833 52.9261 85.3731 53.2386 85.7443 53.4545C86.1155 53.6667 86.5492 53.7727 87.0455 53.7727C87.3674 53.7727 87.661 53.7273 87.9261 53.6364C88.1913 53.5417 88.4205 53.4015 88.6136 53.2159C88.8068 53.0303 88.9545 52.8011 89.0568 52.5284L90.6648 52.8182C90.536 53.2917 90.3049 53.7064 89.9716 54.0625C89.642 54.4148 89.2273 54.6894 88.7273 54.8864C88.2311 55.0795 87.6648 55.1761 87.0284 55.1761Z" fill="black"/>
</svg>
