<svg width="52" height="59" viewBox="0 0 52 59" fill="none" xmlns="http://www.w3.org/2000/svg">
<g clip-path="url(#clip0_467_194)">
<path d="M24.4059 0.0528048C23.3733 0.17013 22.2879 0.40478 21.3258 0.727423C20.3988 1.03247 19.1667 1.56043 18.979 1.73642C18.7971 1.90654 18.7678 2.11772 18.9027 2.29958C19.0728 2.52836 19.3075 2.52836 19.7417 2.31131C21.754 1.29645 24.224 0.768487 26.5473 0.862347C27.6503 0.909277 28.4365 1.02074 29.4808 1.27885C30.8889 1.63082 32.3087 2.24091 33.5876 3.03872C33.9279 3.24991 34.2682 3.4259 34.3445 3.4259C34.4384 3.4259 34.632 3.27924 34.9605 2.96246C35.2187 2.70435 35.5061 2.4697 35.5941 2.4345C35.8288 2.34651 36.1691 2.4697 36.2923 2.69262C36.4448 2.96833 37.4188 7.45014 37.3718 7.68479C37.3249 7.93704 37.0961 8.11889 36.8145 8.11889C36.5739 8.11889 32.2089 7.1627 31.986 7.0571C31.8217 6.98084 31.6516 6.71686 31.6516 6.53501C31.6516 6.34729 31.7513 6.1889 32.1268 5.78999C32.4143 5.49668 32.4729 5.39695 32.4729 5.22683C32.4729 4.98632 32.4084 4.92179 31.7982 4.58741C28.3074 2.68088 24.2123 2.59876 20.6745 4.3645C17.6589 5.87799 15.3591 8.70552 14.526 11.932C14.2385 13.0407 14.1505 13.774 14.1505 14.9824C14.1505 15.7215 14.1857 16.273 14.2502 16.7129C14.6374 19.1768 15.67 21.3121 17.3186 23.072C19.2137 25.0958 21.5311 26.316 24.2886 26.7501C25.1627 26.885 26.8759 26.885 27.75 26.7501C30.2552 26.357 32.4143 25.3011 34.2037 23.5882C36.1574 21.7227 37.3542 19.4349 37.7942 16.7129C37.9292 15.8506 37.9292 14.0731 37.7942 13.2695C37.6652 12.5244 37.671 12.2722 37.8118 11.9906C37.9996 11.6269 38.2871 11.4451 38.7271 11.4157C39.0498 11.3923 39.1378 11.4099 39.3607 11.5448C39.7069 11.7501 39.8418 11.9847 39.9474 12.5831C40.5341 15.9621 39.8242 19.5874 38.0113 22.4619C36.7323 24.4916 34.9312 26.1987 32.8543 27.3543C28.7122 29.6597 23.5904 29.7008 19.3897 27.4658C15.8988 25.612 13.2763 22.2741 12.32 18.4728C11.9973 17.1881 11.9152 16.4666 11.9152 14.9824C11.9152 13.4982 11.9973 12.7767 12.32 11.492C12.5723 10.5006 12.848 9.74971 13.3467 8.73485C14.2854 6.81659 15.717 5.08018 17.4829 3.71921C17.8291 3.44936 18.1283 3.17951 18.1517 3.10912C18.2104 2.95073 18.1165 2.67502 17.9816 2.60462C17.7469 2.48143 17.5768 2.54596 16.996 2.98006C13.7515 5.42629 11.6805 8.9871 11.1114 13.1052C10.9941 13.9441 11.0058 16.1967 11.1349 17.0356C11.657 20.4321 13.0182 23.1658 15.3591 25.5358C18.0931 28.2988 21.5839 29.8357 25.4913 29.9824C30.7128 30.176 35.6 27.6594 38.5452 23.2538C40.229 20.7313 41.1325 17.5518 41.0211 14.5131C40.9448 12.5127 40.6866 11.492 40.1469 11.0227C39.701 10.6414 39.437 10.5534 38.7799 10.5534C38.2401 10.5534 38.1697 10.5651 37.8822 10.7294C37.2369 11.0872 36.8145 11.7618 36.8145 12.4482C36.8145 12.63 36.8555 13.0113 36.9025 13.2929C37.1782 14.9765 37.0257 16.7599 36.4566 18.4728C35.3771 21.7462 32.7839 24.3391 29.5101 25.4185C27.2103 26.1811 24.8224 26.1811 22.5285 25.4185C19.243 24.3215 16.6674 21.752 15.582 18.4728C14.6668 15.7098 14.8604 12.7415 16.1335 10.1369C17.0664 8.21275 18.5742 6.5878 20.434 5.49668C23.5728 3.64881 27.4156 3.47869 30.7539 5.03911C31.0531 5.1799 31.2995 5.32069 31.2995 5.35002C31.2995 5.37936 31.2467 5.44975 31.1763 5.51428C31.1059 5.57294 31.0003 5.72546 30.9417 5.84279C30.5955 6.52327 30.8478 7.41494 31.4873 7.79038C31.8158 7.98397 36.304 8.99883 36.8262 8.99883C37.3836 8.99883 37.8705 8.69379 38.1404 8.16582C38.3516 7.75519 38.3281 7.52054 37.7532 4.95112C37.454 3.61362 37.1782 2.44623 37.1313 2.36411C36.8731 1.85374 36.3568 1.5311 35.7877 1.53696C35.3184 1.53696 35.0602 1.65429 34.6261 2.07079L34.2623 2.4169L34.0277 2.27611C32.1502 1.12046 30.2376 0.422378 28.1021 0.105601C27.2455 -0.0175901 25.2683 -0.0469213 24.4059 0.0528048Z" fill="#E2201F"/>
<path d="M25.4912 8.39455C25.4442 8.41215 23.9951 9.00464 22.2702 9.70859C19.0023 11.0402 18.9084 11.093 18.6796 11.533C18.4802 11.9202 18.5271 12.2897 18.885 13.1579C19.061 13.5744 19.2605 13.9968 19.325 14.0965C19.5831 14.4544 20.293 14.6714 20.7037 14.513L20.8563 14.4544V17.9037C20.8563 21.2944 20.8563 21.359 20.9736 21.4821L21.0968 21.6112H24.2004C27.2336 21.6112 27.3158 21.6053 27.4272 21.4939C27.5739 21.3472 27.5798 21.0774 27.4331 20.9014L27.3216 20.7606L24.529 20.743L21.7363 20.7254L21.748 17.411L21.7656 14.0907L23.8953 13.2225L26.025 12.3484L28.1489 13.2225L30.2727 14.0907L30.2903 17.4051L30.302 20.7195L29.5041 20.743C28.7121 20.7606 28.7062 20.7606 28.5654 20.9249C28.3953 21.1243 28.3894 21.2534 28.5478 21.4587L28.6652 21.6112H29.8033C30.9005 21.6112 30.9474 21.6053 31.0647 21.4821C31.1821 21.359 31.1821 21.2944 31.1821 17.9096V14.4603L31.364 14.5248C31.5986 14.6069 32.0328 14.56 32.3144 14.4251C32.6371 14.2725 32.7896 14.0379 33.1475 13.1521C33.5113 12.2721 33.5582 11.9202 33.3587 11.533C33.1299 11.0872 33.0302 11.0402 29.7329 9.68513L26.5765 8.38869L26.0778 8.37109C25.8021 8.36522 25.5381 8.37109 25.4912 8.39455ZM29.3105 10.4712C30.9709 11.1458 32.3848 11.7442 32.4611 11.7911C32.6488 11.9143 32.6253 12.1255 32.332 12.8412C31.9624 13.7328 31.8685 13.8032 31.3816 13.5979C29.6508 12.8588 26.1306 11.4626 26.0133 11.4626C25.9312 11.4626 24.6346 11.9612 23.1385 12.5772C21.6483 13.1873 20.3693 13.6918 20.2989 13.6918C20.1053 13.6918 19.9938 13.5275 19.7064 12.8412C19.413 12.1196 19.3837 11.9143 19.5831 11.7852C19.6594 11.7383 21.0616 11.1458 22.7102 10.4712C25.1802 9.45634 25.7493 9.24516 25.9957 9.23929C26.2597 9.23343 26.6704 9.38595 29.3105 10.4712Z" fill="#E2201F"/>
<path d="M23.5551 14.6128C23.5081 14.6304 23.4201 14.6832 23.3673 14.736C23.2676 14.8181 23.2617 14.9941 23.2617 16.8361V18.8482L23.4143 18.9656C23.5668 19.0829 23.6313 19.0887 26.0192 19.0887C28.407 19.0887 28.4716 19.0829 28.6241 18.9656L28.7766 18.8482V16.8361C28.7766 14.865 28.7766 14.824 28.6534 14.7125C28.5361 14.6069 28.4012 14.6011 26.0837 14.5893C24.7402 14.5835 23.602 14.5952 23.5551 14.6128ZM27.8966 16.8302V18.2088H26.0192H24.1418V16.8302V15.4517H26.0192H27.8966V16.8302Z" fill="#E2201F"/>
</g>
<path d="M1.27841 55V43.3636H5.42614C6.32765 43.3636 7.07576 43.5189 7.67045 43.8295C8.26894 44.1402 8.71591 44.5701 9.01136 45.1193C9.30682 45.6648 9.45455 46.2955 9.45455 47.0114C9.45455 47.7235 9.30492 48.3504 9.00568 48.892C8.71023 49.4299 8.26326 49.8485 7.66477 50.1477C7.07008 50.447 6.32197 50.5966 5.42045 50.5966H2.27841V49.0852H5.26136C5.82955 49.0852 6.29167 49.0038 6.64773 48.8409C7.00758 48.678 7.27083 48.4413 7.4375 48.1307C7.60417 47.8201 7.6875 47.447 7.6875 47.0114C7.6875 46.572 7.60227 46.1913 7.43182 45.8693C7.26515 45.5473 7.00189 45.3011 6.64205 45.1307C6.28598 44.9564 5.81818 44.8693 5.23864 44.8693H3.03409V55H1.27841ZM7.02273 49.75L9.89773 55H7.89773L5.07955 49.75H7.02273ZM15.1065 55.1761C14.2467 55.1761 13.5062 54.9924 12.8849 54.625C12.2675 54.2538 11.7902 53.733 11.4531 53.0625C11.1198 52.3883 10.9531 51.5985 10.9531 50.6932C10.9531 49.7992 11.1198 49.0114 11.4531 48.3295C11.7902 47.6477 12.2599 47.1155 12.8622 46.733C13.4683 46.3504 14.1766 46.1591 14.9872 46.1591C15.4796 46.1591 15.9569 46.2405 16.419 46.4034C16.8812 46.5663 17.2959 46.822 17.6634 47.1705C18.0308 47.5189 18.3205 47.9716 18.5327 48.5284C18.7448 49.0814 18.8509 49.7538 18.8509 50.5455V51.1477H11.9134V49.875H17.1861C17.1861 49.428 17.0952 49.0322 16.9134 48.6875C16.7315 48.339 16.4759 48.0644 16.1463 47.8636C15.8205 47.6629 15.438 47.5625 14.9986 47.5625C14.5213 47.5625 14.1046 47.6799 13.7486 47.9148C13.3963 48.1458 13.1236 48.4489 12.9304 48.8239C12.741 49.1951 12.6463 49.5985 12.6463 50.0341V51.0284C12.6463 51.6117 12.7486 52.108 12.9531 52.517C13.1615 52.9261 13.4512 53.2386 13.8224 53.4545C14.1937 53.6667 14.6274 53.7727 15.1236 53.7727C15.4455 53.7727 15.7391 53.7273 16.0043 53.6364C16.2694 53.5417 16.4986 53.4015 16.6918 53.2159C16.8849 53.0303 17.0327 52.8011 17.1349 52.5284L18.7429 52.8182C18.6141 53.2917 18.383 53.7064 18.0497 54.0625C17.7202 54.4148 17.3054 54.6894 16.8054 54.8864C16.3092 55.0795 15.7429 55.1761 15.1065 55.1761ZM22.4347 49.8182V55H20.7358V46.2727H22.3665V47.6932H22.4744C22.6752 47.2311 22.9896 46.8598 23.4176 46.5795C23.8494 46.2992 24.393 46.1591 25.0483 46.1591C25.643 46.1591 26.1638 46.2841 26.6108 46.5341C27.0578 46.7803 27.4044 47.1477 27.6506 47.6364C27.8968 48.125 28.0199 48.7292 28.0199 49.4489V55H26.321V49.6534C26.321 49.0208 26.1563 48.5265 25.8267 48.1705C25.4972 47.8106 25.0445 47.6307 24.4688 47.6307C24.0748 47.6307 23.7244 47.7159 23.4176 47.8864C23.1146 48.0568 22.8741 48.3068 22.696 48.6364C22.5218 48.9621 22.4347 49.3561 22.4347 49.8182ZM34.0597 55.1761C33.1998 55.1761 32.4593 54.9924 31.8381 54.625C31.2206 54.2538 30.7434 53.733 30.4062 53.0625C30.0729 52.3883 29.9062 51.5985 29.9062 50.6932C29.9062 49.7992 30.0729 49.0114 30.4062 48.3295C30.7434 47.6477 31.2131 47.1155 31.8153 46.733C32.4214 46.3504 33.1297 46.1591 33.9403 46.1591C34.4328 46.1591 34.91 46.2405 35.3722 46.4034C35.8343 46.5663 36.2491 46.822 36.6165 47.1705C36.9839 47.5189 37.2737 47.9716 37.4858 48.5284C37.6979 49.0814 37.804 49.7538 37.804 50.5455V51.1477H30.8665V49.875H36.1392C36.1392 49.428 36.0483 49.0322 35.8665 48.6875C35.6847 48.339 35.429 48.0644 35.0994 47.8636C34.7737 47.6629 34.3911 47.5625 33.9517 47.5625C33.4744 47.5625 33.0578 47.6799 32.7017 47.9148C32.3494 48.1458 32.0767 48.4489 31.8835 48.8239C31.6941 49.1951 31.5994 49.5985 31.5994 50.0341V51.0284C31.5994 51.6117 31.7017 52.108 31.9062 52.517C32.1146 52.9261 32.4044 53.2386 32.7756 53.4545C33.1468 53.6667 33.5805 53.7727 34.0767 53.7727C34.3987 53.7727 34.6922 53.7273 34.9574 53.6364C35.2225 53.5417 35.4517 53.4015 35.6449 53.2159C35.8381 53.0303 35.9858 52.8011 36.0881 52.5284L37.696 52.8182C37.5672 53.2917 37.3362 53.7064 37.0028 54.0625C36.6733 54.4148 36.2585 54.6894 35.7585 54.8864C35.2623 55.0795 34.696 55.1761 34.0597 55.1761ZM41.5653 55L38.9972 46.2727H40.7528L42.4631 52.6818H42.5483L44.2642 46.2727H46.0199L47.7244 52.6534H47.8097L49.5085 46.2727H51.2642L48.7017 55H46.9688L45.196 48.6989H45.0653L43.2926 55H41.5653Z" fill="black"/>
<defs>
<clipPath id="clip0_467_194">
<rect width="30" height="30" fill="white" transform="translate(11)"/>
</clipPath>
</defs>
</svg>
