<svg width="24" height="24" viewBox="0 0 24 24" fill="none" xmlns="http://www.w3.org/2000/svg">
<path d="M14.9845 12C14.9845 12.1182 14.9612 12.2352 14.916 12.3444C14.8708 12.4536 14.8045 12.5528 14.7209 12.6364C14.6373 12.72 14.5381 12.7863 14.4289 12.8315C14.3197 12.8767 14.2027 12.9 14.0845 12.9C13.9663 12.9 13.8493 12.8767 13.7401 12.8315C13.6309 12.7863 13.5317 12.72 13.4481 12.6364C13.3645 12.5528 13.2982 12.4536 13.253 12.3444C13.2078 12.2352 13.1845 12.1182 13.1845 12C13.1845 11.7613 13.2793 11.5324 13.4481 11.3636C13.6169 11.1948 13.8458 11.1 14.0845 11.1C14.3232 11.1 14.5521 11.1948 14.7209 11.3636C14.8897 11.5324 14.9845 11.7613 14.9845 12ZM11.5261 2.4168C11.4387 2.39802 11.3482 2.39902 11.2612 2.41971C11.1742 2.44041 11.093 2.48028 11.0234 2.53641C10.9538 2.59254 10.8976 2.66351 10.859 2.74413C10.8204 2.82476 10.8003 2.913 10.8001 3.0024V21.0024C10.8001 21.0919 10.8201 21.1803 10.8586 21.2611C10.8972 21.3418 10.9533 21.4129 11.0229 21.4692C11.0925 21.5255 11.1739 21.5655 11.2609 21.5862C11.348 21.607 11.4386 21.608 11.5261 21.5892L19.9261 19.788C20.0603 19.7589 20.1804 19.6846 20.2665 19.5776C20.3525 19.4706 20.3993 19.3373 20.3989 19.2V4.8C20.3987 4.66293 20.3515 4.53007 20.2653 4.42353C20.179 4.31699 20.0589 4.24318 19.9249 4.2144L11.5249 2.4156L11.5261 2.4168ZM12.0001 20.2596V3.744L19.2001 5.286V18.7164L12.0001 20.2596ZM9.6025 20.3976V19.1976H4.8001V4.8036H9.6025V3.6036H4.2001C4.04097 3.6036 3.88836 3.66681 3.77583 3.77934C3.66331 3.89186 3.6001 4.04447 3.6001 4.2036V19.7976C3.6001 19.9567 3.66331 20.1093 3.77583 20.2219C3.88836 20.3344 4.04097 20.3976 4.2001 20.3976H9.6025Z" fill="black"/>
</svg>
