<svg width="13" height="13" viewBox="0 0 13 13" fill="none" xmlns="http://www.w3.org/2000/svg">
<path d="M4.9791 0.166748C5.89374 0.166648 6.78948 0.427195 7.56136 0.917867C8.33325 1.40854 8.94933 2.10902 9.33742 2.93724C9.72552 3.76546 9.86956 4.68713 9.75267 5.59427C9.63578 6.50141 9.26281 7.35646 8.67743 8.05925L11.9966 11.3784C12.0542 11.4319 12.0963 11.4999 12.1185 11.5753C12.1406 11.6507 12.1421 11.7307 12.1226 11.8068C12.1031 11.883 12.0635 11.9524 12.0078 12.0079C11.9522 12.0634 11.8826 12.1029 11.8064 12.1222C11.7304 12.1417 11.6505 12.1403 11.5751 12.1182C11.4998 12.0962 11.4318 12.0542 11.3783 11.9967L8.0591 8.67758C7.46517 9.17211 6.76087 9.51632 6.00578 9.6811C5.25069 9.84587 4.46702 9.82637 3.72106 9.62423C2.9751 9.4221 2.2888 9.04328 1.72021 8.51981C1.15161 7.99635 0.717451 7.34365 0.454451 6.61691C0.191452 5.89018 0.107349 5.11079 0.209258 4.34468C0.311166 3.57856 0.596088 2.84826 1.03992 2.21555C1.48376 1.58284 2.07345 1.06633 2.75911 0.709708C3.44477 0.353088 4.20624 0.16685 4.9791 0.166748ZM1.0416 4.97925C1.0416 5.49633 1.14345 6.00834 1.34133 6.48606C1.5392 6.96378 1.82924 7.39785 2.19487 7.76348C2.5605 8.12911 2.99457 8.41915 3.47229 8.61702C3.95001 8.8149 4.46202 8.91675 4.9791 8.91675C5.49618 8.91675 6.0082 8.8149 6.48592 8.61702C6.96364 8.41915 7.3977 8.12911 7.76334 7.76348C8.12897 7.39785 8.419 6.96378 8.61688 6.48606C8.81476 6.00834 8.9166 5.49633 8.9166 4.97925C8.9166 3.93496 8.50176 2.93344 7.76334 2.19502C7.02491 1.45659 6.02339 1.04175 4.9791 1.04175C3.93481 1.04175 2.93329 1.45659 2.19487 2.19502C1.45644 2.93344 1.0416 3.93496 1.0416 4.97925Z" fill="black" fill-opacity="0.2"/>
</svg>
