<svg width="77" height="59" viewBox="0 0 77 59" fill="none" xmlns="http://www.w3.org/2000/svg">
<path d="M36.5374 11.2124C36.3597 11.0468 36.1247 10.9567 35.8818 10.961C35.6389 10.9653 35.4072 11.0637 35.2354 11.2354C35.0637 11.4072 34.9653 11.6389 34.961 11.8818C34.9567 12.1247 35.0468 12.3597 35.2124 12.5374L37.6749 14.9999L35.2124 17.4624C35.1203 17.5483 35.0465 17.6518 34.9952 17.7668C34.944 17.8818 34.9164 18.0059 34.9142 18.1318C34.912 18.2577 34.9351 18.3827 34.9823 18.4994C35.0294 18.6162 35.0996 18.7222 35.1887 18.8112C35.2777 18.9003 35.3837 18.9705 35.5005 19.0176C35.6172 19.0648 35.7422 19.0879 35.8681 19.0857C35.994 19.0835 36.1181 19.0559 36.2331 19.0047C36.3481 18.9534 36.4516 18.8796 36.5374 18.7874L38.9999 16.3249L41.4624 18.7874C41.6402 18.953 41.8752 19.0432 42.1181 19.0389C42.361 19.0346 42.5927 18.9362 42.7645 18.7645C42.9362 18.5927 43.0346 18.361 43.0389 18.1181C43.0432 17.8752 42.953 17.6402 42.7874 17.4624L40.3249 14.9999L42.7874 12.5374C42.8796 12.4516 42.9534 12.3481 43.0047 12.2331C43.0559 12.1181 43.0835 11.994 43.0857 11.8681C43.0879 11.7422 43.0648 11.6172 43.0176 11.5005C42.9705 11.3837 42.9003 11.2777 42.8112 11.1887C42.7222 11.0996 42.6162 11.0294 42.4994 10.9823C42.3827 10.9351 42.2577 10.912 42.1318 10.9142C42.0059 10.9164 41.8818 10.944 41.7668 10.9952C41.6518 11.0465 41.5483 11.1203 41.4624 11.2124L38.9999 13.6749L36.5374 11.2124Z" fill="#E2201F"/>
<path fill-rule="evenodd" clip-rule="evenodd" d="M39.0713 1.5625H38.9287C36.0425 1.5625 33.7813 1.5625 32.0163 1.8C30.2113 2.0425 28.7862 2.55 27.6675 3.6675C26.5488 4.78625 26.0425 6.21125 25.8 8.0175C25.5625 9.78125 25.5625 12.0425 25.5625 14.9287V15.0713C25.5625 17.9575 25.5625 20.2187 25.8 21.9837C26.0425 23.7887 26.55 25.2138 27.6675 26.3325C28.7862 27.4512 30.2112 27.9575 32.0175 28.2C33.7813 28.4375 36.0425 28.4375 38.9287 28.4375H39.0713C41.9575 28.4375 44.2187 28.4375 45.9837 28.2C47.7887 27.9575 49.2138 27.45 50.3325 26.3325C51.4512 25.2138 51.9575 23.7888 52.2 21.9825C52.4375 20.2188 52.4375 17.9575 52.4375 15.0713V14.9287C52.4375 12.0425 52.4375 9.78125 52.2 8.01625C51.9575 6.21125 51.45 4.78625 50.3325 3.6675C49.2138 2.54875 47.7888 2.0425 45.9825 1.8C44.2188 1.5625 41.9575 1.5625 39.0713 1.5625ZM28.9937 4.99375C29.7062 4.28125 30.6687 3.8725 32.2675 3.6575C33.8925 3.44 36.0275 3.4375 39 3.4375C41.9725 3.4375 44.1075 3.44 45.7325 3.6575C47.3312 3.8725 48.295 4.2825 49.0075 4.99375C49.7188 5.70625 50.1275 6.66875 50.3425 8.2675C50.56 9.8925 50.5625 12.0275 50.5625 15C50.5625 17.9725 50.56 20.1075 50.3425 21.7325C50.1275 23.3312 49.7175 24.295 49.0062 25.0075C48.2937 25.7188 47.3312 26.1275 45.7325 26.3425C44.1075 26.56 41.9725 26.5625 39 26.5625C36.0275 26.5625 33.8925 26.56 32.2675 26.3425C30.6687 26.1275 29.705 25.7175 28.9925 25.0062C28.2812 24.2937 27.8725 23.3312 27.6575 21.7325C27.44 20.1075 27.4375 17.9725 27.4375 15C27.4375 12.0275 27.44 9.8925 27.6575 8.2675C27.8725 6.66875 28.2825 5.70625 28.9937 4.99375Z" fill="#E2201F"/>
<path d="M0.704545 44.875V43.3636H9.71023V44.875H6.07955V55H4.32955V44.875H0.704545ZM14.0597 55.1761C13.1998 55.1761 12.4593 54.9924 11.8381 54.625C11.2206 54.2538 10.7434 53.733 10.4062 53.0625C10.0729 52.3883 9.90625 51.5985 9.90625 50.6932C9.90625 49.7992 10.0729 49.0114 10.4062 48.3295C10.7434 47.6477 11.2131 47.1155 11.8153 46.733C12.4214 46.3504 13.1297 46.1591 13.9403 46.1591C14.4328 46.1591 14.91 46.2405 15.3722 46.4034C15.8343 46.5663 16.2491 46.822 16.6165 47.1705C16.9839 47.5189 17.2737 47.9716 17.4858 48.5284C17.6979 49.0814 17.804 49.7538 17.804 50.5455V51.1477H10.8665V49.875H16.1392C16.1392 49.428 16.0483 49.0322 15.8665 48.6875C15.6847 48.339 15.429 48.0644 15.0994 47.8636C14.7737 47.6629 14.3911 47.5625 13.9517 47.5625C13.4744 47.5625 13.0578 47.6799 12.7017 47.9148C12.3494 48.1458 12.0767 48.4489 11.8835 48.8239C11.6941 49.1951 11.5994 49.5985 11.5994 50.0341V51.0284C11.5994 51.6117 11.7017 52.108 11.9062 52.517C12.1146 52.9261 12.4044 53.2386 12.7756 53.4545C13.1468 53.6667 13.5805 53.7727 14.0767 53.7727C14.3987 53.7727 14.6922 53.7273 14.9574 53.6364C15.2225 53.5417 15.4517 53.4015 15.6449 53.2159C15.8381 53.0303 15.9858 52.8011 16.0881 52.5284L17.696 52.8182C17.5672 53.2917 17.3362 53.7064 17.0028 54.0625C16.6733 54.4148 16.2585 54.6894 15.7585 54.8864C15.2623 55.0795 14.696 55.1761 14.0597 55.1761ZM19.6889 55V46.2727H21.331V47.6591H21.4219C21.581 47.1894 21.8613 46.8201 22.2628 46.5511C22.6681 46.2784 23.1264 46.142 23.6378 46.142C23.7438 46.142 23.8688 46.1458 24.0128 46.1534C24.1605 46.161 24.276 46.1705 24.3594 46.1818V47.8068C24.2912 47.7879 24.17 47.767 23.9957 47.7443C23.8215 47.7178 23.6473 47.7045 23.473 47.7045C23.0715 47.7045 22.7135 47.7898 22.3991 47.9602C22.0885 48.1269 21.8423 48.3598 21.6605 48.6591C21.4787 48.9545 21.3878 49.2917 21.3878 49.6705V55H19.6889ZM25.8295 55V46.2727H27.4602V47.6932H27.5682C27.75 47.2121 28.0473 46.8371 28.4602 46.5682C28.8731 46.2955 29.3674 46.1591 29.9432 46.1591C30.5265 46.1591 31.0152 46.2955 31.4091 46.5682C31.8068 46.8409 32.1004 47.2159 32.2898 47.6932H32.3807C32.589 47.2273 32.9205 46.8561 33.375 46.5795C33.8295 46.2992 34.3712 46.1591 35 46.1591C35.7917 46.1591 36.4375 46.4072 36.9375 46.9034C37.4413 47.3996 37.6932 48.1477 37.6932 49.1477V55H35.9943V49.3068C35.9943 48.7159 35.8333 48.2879 35.5114 48.0227C35.1894 47.7576 34.8049 47.625 34.358 47.625C33.8049 47.625 33.375 47.7955 33.0682 48.1364C32.7614 48.4735 32.608 48.9072 32.608 49.4375V55H30.9148V49.1989C30.9148 48.7254 30.767 48.3447 30.4716 48.0568C30.1761 47.7689 29.7917 47.625 29.3182 47.625C28.9962 47.625 28.6989 47.7102 28.4261 47.8807C28.1572 48.0473 27.9394 48.2803 27.7727 48.5795C27.6098 48.8788 27.5284 49.2254 27.5284 49.6193V55H25.8295ZM39.9702 55V46.2727H41.669V55H39.9702ZM40.8281 44.9261C40.5327 44.9261 40.2789 44.8277 40.0668 44.6307C39.8584 44.4299 39.7543 44.1913 39.7543 43.9148C39.7543 43.6345 39.8584 43.3958 40.0668 43.1989C40.2789 42.9981 40.5327 42.8977 40.8281 42.8977C41.1236 42.8977 41.3755 42.9981 41.5838 43.1989C41.7959 43.3958 41.902 43.6345 41.902 43.9148C41.902 44.1913 41.7959 44.4299 41.5838 44.6307C41.3755 44.8277 41.1236 44.9261 40.8281 44.9261ZM45.6534 49.8182V55H43.9545V46.2727H45.5852V47.6932H45.6932C45.8939 47.2311 46.2083 46.8598 46.6364 46.5795C47.0682 46.2992 47.6117 46.1591 48.267 46.1591C48.8617 46.1591 49.3826 46.2841 49.8295 46.5341C50.2765 46.7803 50.6231 47.1477 50.8693 47.6364C51.1155 48.125 51.2386 48.7292 51.2386 49.4489V55H49.5398V49.6534C49.5398 49.0208 49.375 48.5265 49.0455 48.1705C48.7159 47.8106 48.2633 47.6307 47.6875 47.6307C47.2936 47.6307 46.9432 47.7159 46.6364 47.8864C46.3333 48.0568 46.0928 48.3068 45.9148 48.6364C45.7405 48.9621 45.6534 49.3561 45.6534 49.8182ZM56.0568 55.1932C55.5038 55.1932 55.0038 55.0909 54.5568 54.8864C54.1098 54.678 53.7557 54.3769 53.4943 53.983C53.2367 53.589 53.108 53.1061 53.108 52.5341C53.108 52.0417 53.2027 51.6364 53.392 51.3182C53.5814 51 53.8371 50.7481 54.1591 50.5625C54.4811 50.3769 54.8409 50.2367 55.2386 50.142C55.6364 50.0473 56.0417 49.9754 56.4545 49.9261C56.9773 49.8655 57.4015 49.8163 57.7273 49.7784C58.053 49.7367 58.2898 49.6705 58.4375 49.5795C58.5852 49.4886 58.6591 49.3409 58.6591 49.1364V49.0966C58.6591 48.6004 58.5189 48.2159 58.2386 47.9432C57.9621 47.6705 57.5492 47.5341 57 47.5341C56.428 47.5341 55.9773 47.661 55.6477 47.9148C55.322 48.1648 55.0966 48.4432 54.9716 48.75L53.375 48.3864C53.5644 47.8561 53.8409 47.428 54.2045 47.1023C54.572 46.7727 54.9943 46.5341 55.4716 46.3864C55.9489 46.2348 56.4508 46.1591 56.9773 46.1591C57.3258 46.1591 57.6951 46.2008 58.0852 46.2841C58.4792 46.3636 58.8466 46.5114 59.1875 46.7273C59.5322 46.9432 59.8144 47.2519 60.0341 47.6534C60.2538 48.0511 60.3636 48.5682 60.3636 49.2045V55H58.7045V53.8068H58.6364C58.5265 54.0265 58.3617 54.2424 58.142 54.4545C57.9223 54.6667 57.6402 54.8428 57.2955 54.983C56.9508 55.1231 56.5379 55.1932 56.0568 55.1932ZM56.4261 53.8295C56.8958 53.8295 57.2973 53.7367 57.6307 53.5511C57.9678 53.3655 58.2235 53.1231 58.3977 52.8239C58.5758 52.5208 58.6648 52.197 58.6648 51.8523V50.7273C58.6042 50.7879 58.4867 50.8447 58.3125 50.8977C58.142 50.947 57.947 50.9905 57.7273 51.0284C57.5076 51.0625 57.2936 51.0947 57.0852 51.125C56.8769 51.1515 56.7027 51.1742 56.5625 51.1932C56.233 51.2348 55.9318 51.3049 55.6591 51.4034C55.3902 51.5019 55.1742 51.6439 55.0114 51.8295C54.8523 52.0114 54.7727 52.2538 54.7727 52.5568C54.7727 52.9773 54.928 53.2955 55.2386 53.5114C55.5492 53.7235 55.9451 53.8295 56.4261 53.8295ZM66.7003 46.2727V47.6364H61.9332V46.2727H66.7003ZM63.2116 44.1818H64.9105V52.4375C64.9105 52.767 64.9598 53.0152 65.0582 53.1818C65.1567 53.3447 65.2836 53.4564 65.4389 53.517C65.598 53.5739 65.7704 53.6023 65.956 53.6023C66.0923 53.6023 66.2116 53.5928 66.3139 53.5739C66.4162 53.5549 66.4957 53.5398 66.5526 53.5284L66.8594 54.9318C66.7609 54.9697 66.6207 55.0076 66.4389 55.0455C66.2571 55.0871 66.0298 55.1098 65.7571 55.1136C65.3101 55.1212 64.8935 55.0417 64.5071 54.875C64.1207 54.7083 63.8082 54.4508 63.5696 54.1023C63.331 53.7538 63.2116 53.3163 63.2116 52.7898V44.1818ZM72.2472 55.1761C71.3873 55.1761 70.6468 54.9924 70.0256 54.625C69.4081 54.2538 68.9309 53.733 68.5938 53.0625C68.2604 52.3883 68.0938 51.5985 68.0938 50.6932C68.0938 49.7992 68.2604 49.0114 68.5938 48.3295C68.9309 47.6477 69.4006 47.1155 70.0028 46.733C70.6089 46.3504 71.3172 46.1591 72.1278 46.1591C72.6203 46.1591 73.0975 46.2405 73.5597 46.4034C74.0218 46.5663 74.4366 46.822 74.804 47.1705C75.1714 47.5189 75.4612 47.9716 75.6733 48.5284C75.8854 49.0814 75.9915 49.7538 75.9915 50.5455V51.1477H69.054V49.875H74.3267C74.3267 49.428 74.2358 49.0322 74.054 48.6875C73.8722 48.339 73.6165 48.0644 73.2869 47.8636C72.9612 47.6629 72.5786 47.5625 72.1392 47.5625C71.6619 47.5625 71.2453 47.6799 70.8892 47.9148C70.5369 48.1458 70.2642 48.4489 70.071 48.8239C69.8816 49.1951 69.7869 49.5985 69.7869 50.0341V51.0284C69.7869 51.6117 69.8892 52.108 70.0938 52.517C70.3021 52.9261 70.5919 53.2386 70.9631 53.4545C71.3343 53.6667 71.768 53.7727 72.2642 53.7727C72.5862 53.7727 72.8797 53.7273 73.1449 53.6364C73.41 53.5417 73.6392 53.4015 73.8324 53.2159C74.0256 53.0303 74.1733 52.8011 74.2756 52.5284L75.8835 52.8182C75.7547 53.2917 75.5237 53.7064 75.1903 54.0625C74.8608 54.4148 74.446 54.6894 73.946 54.8864C73.4498 55.0795 72.8835 55.1761 72.2472 55.1761Z" fill="black"/>
</svg>
