<svg width="188" height="104" viewBox="0 0 188 104" fill="none" xmlns="http://www.w3.org/2000/svg">
<g filter="url(#filter0_d_1_53791)">
<rect x="30" y="15" width="138" height="44" rx="22" fill="white"/>
</g>
<circle cx="52" cy="37" r="16" fill="#E6E6E6"/>
<path d="M52 27C49.38 27 47.25 29.13 47.25 31.75C47.25 34.32 49.26 36.4 51.88 36.49C51.96 36.48 52.04 36.48 52.1 36.49C52.12 36.49 52.13 36.49 52.15 36.49C52.16 36.49 52.16 36.49 52.17 36.49C54.73 36.4 56.74 34.32 56.75 31.75C56.75 29.13 54.62 27 52 27Z" fill="#717885"/>
<path d="M57.08 39.15C54.29 37.29 49.74 37.29 46.93 39.15C45.66 40 44.96 41.15 44.96 42.38C44.96 43.61 45.66 44.75 46.92 45.59C48.32 46.53 50.16 47 52 47C53.84 47 55.68 46.53 57.08 45.59C58.34 44.74 59.04 43.6 59.04 42.36C59.03 41.13 58.34 39.99 57.08 39.15Z" fill="#717885"/>
<path d="M87.28 43V31.48H88.704V43H87.28ZM91.9284 43V33.888C91.9284 33.664 91.939 33.4373 91.9604 33.208C91.9817 32.9733 92.0297 32.7467 92.1044 32.528C92.179 32.304 92.3017 32.0987 92.4724 31.912C92.6697 31.6933 92.8857 31.5387 93.1204 31.448C93.355 31.352 93.5924 31.2933 93.8324 31.272C94.0777 31.2507 94.3097 31.24 94.5284 31.24H95.6244V32.424H94.6084C94.187 32.424 93.8724 32.528 93.6644 32.736C93.4564 32.9387 93.3524 33.248 93.3524 33.664V43H91.9284ZM90.4644 35.536V34.36H95.6244V35.536H90.4644ZM97.0084 43V33.888C97.0084 33.664 97.019 33.4373 97.0404 33.208C97.0617 32.9733 97.1097 32.7467 97.1844 32.528C97.259 32.304 97.3817 32.0987 97.5524 31.912C97.7497 31.6933 97.9657 31.5387 98.2004 31.448C98.435 31.352 98.6724 31.2933 98.9124 31.272C99.1577 31.2507 99.3897 31.24 99.6084 31.24H100.704V32.424H99.6884C99.267 32.424 98.9524 32.528 98.7444 32.736C98.5364 32.9387 98.4324 33.248 98.4324 33.664V43H97.0084ZM95.5444 35.536V34.36H100.704V35.536H95.5444ZM105.307 43.24C104.432 43.24 103.688 43.0453 103.075 42.656C102.467 42.2613 102.003 41.72 101.683 41.032C101.363 40.344 101.198 39.56 101.187 38.68C101.198 37.7787 101.366 36.9867 101.691 36.304C102.022 35.616 102.494 35.08 103.107 34.696C103.72 34.312 104.459 34.12 105.323 34.12C106.235 34.12 107.019 34.344 107.675 34.792C108.336 35.24 108.779 35.8533 109.003 36.632L107.595 37.056C107.414 36.5547 107.118 36.1653 106.707 35.888C106.302 35.6107 105.835 35.472 105.307 35.472C104.715 35.472 104.227 35.6107 103.843 35.888C103.459 36.16 103.174 36.5387 102.987 37.024C102.8 37.504 102.704 38.056 102.699 38.68C102.71 39.64 102.931 40.416 103.363 41.008C103.8 41.5947 104.448 41.888 105.307 41.888C105.872 41.888 106.342 41.76 106.715 41.504C107.088 41.2427 107.371 40.8667 107.563 40.376L109.003 40.752C108.704 41.5573 108.238 42.1733 107.603 42.6C106.968 43.0267 106.203 43.24 105.307 43.24ZM114.081 43.24C113.223 43.24 112.481 43.0453 111.857 42.656C111.239 42.2667 110.761 41.728 110.425 41.04C110.089 40.352 109.921 39.5627 109.921 38.672C109.921 37.7653 110.092 36.9707 110.433 36.288C110.775 35.6053 111.257 35.0747 111.881 34.696C112.505 34.312 113.239 34.12 114.081 34.12C114.945 34.12 115.689 34.3147 116.313 34.704C116.937 35.088 117.415 35.624 117.745 36.312C118.081 36.9947 118.249 37.7813 118.249 38.672C118.249 39.5733 118.081 40.368 117.745 41.056C117.409 41.7387 116.929 42.2747 116.305 42.664C115.681 43.048 114.94 43.24 114.081 43.24ZM114.081 41.888C114.977 41.888 115.644 41.5893 116.081 40.992C116.519 40.3947 116.737 39.6213 116.737 38.672C116.737 37.696 116.516 36.92 116.073 36.344C115.631 35.7627 114.967 35.472 114.081 35.472C113.479 35.472 112.983 35.608 112.593 35.88C112.204 36.152 111.913 36.528 111.721 37.008C111.529 37.488 111.433 38.0427 111.433 38.672C111.433 39.6427 111.657 40.4213 112.105 41.008C112.553 41.5947 113.212 41.888 114.081 41.888Z" fill="#131E33"/>
<path d="M148 41C147.417 41 146.833 40.775 146.392 40.3334L140.958 34.9C140.717 34.6584 140.717 34.2584 140.958 34.0167C141.2 33.775 141.6 33.775 141.842 34.0167L147.275 39.45C147.675 39.85 148.325 39.85 148.725 39.45L154.158 34.0167C154.4 33.775 154.8 33.775 155.042 34.0167C155.283 34.2584 155.283 34.6584 155.042 34.9L149.608 40.3334C149.167 40.775 148.583 41 148 41Z" fill="#131E33"/>
<defs>
<filter id="filter0_d_1_53791" x="0" y="0" width="198" height="104" filterUnits="userSpaceOnUse" color-interpolation-filters="sRGB">
<feFlood flood-opacity="0" result="BackgroundImageFix"/>
<feColorMatrix in="SourceAlpha" type="matrix" values="0 0 0 0 0 0 0 0 0 0 0 0 0 0 0 0 0 0 127 0" result="hardAlpha"/>
<feOffset dy="15"/>
<feGaussianBlur stdDeviation="15"/>
<feComposite in2="hardAlpha" operator="out"/>
<feColorMatrix type="matrix" values="0 0 0 0 0.483333 0 0 0 0 0.483333 0 0 0 0 0.483333 0 0 0 0.1 0"/>
<feBlend mode="normal" in2="BackgroundImageFix" result="effect1_dropShadow_1_53791"/>
<feBlend mode="normal" in="SourceGraphic" in2="effect1_dropShadow_1_53791" result="shape"/>
</filter>
</defs>
</svg>
