<svg width="144" height="32" viewBox="0 0 144 32" fill="none" xmlns="http://www.w3.org/2000/svg">
<path fill-rule="evenodd" clip-rule="evenodd" d="M0 16V8C0 5.79086 0.914398 3.90524 2.74319 2.34315C4.57199 0.781049 6.77954 0 9.36585 0H134.634C137.22 0 139.428 0.781049 141.257 2.34315C143.086 3.90524 144 5.79086 144 8V24C144 26.2091 143.086 28.0948 141.257 29.6569C139.428 31.219 137.22 32 134.634 32H9.36585C6.77954 32 4.57199 31.219 2.74319 29.6569C0.914398 28.0948 0 26.2091 0 24V16Z" fill="#F7F8FA"/>
<path d="M33.48 22V11.92H34.425L38.387 20.397L42.328 11.92H43.287V21.993H42.307V14.216L38.716 22H38.051L34.467 14.216V22H33.48ZM47.4145 22.21C46.8452 22.21 46.3668 22.1073 45.9795 21.902C45.5968 21.6967 45.3098 21.4237 45.1185 21.083C44.9272 20.7423 44.8315 20.3713 44.8315 19.97C44.8315 19.5593 44.9132 19.2093 45.0765 18.92C45.2445 18.626 45.4708 18.3857 45.7555 18.199C46.0448 18.0123 46.3785 17.87 46.7565 17.772C47.1392 17.6787 47.5615 17.597 48.0235 17.527C48.4902 17.4523 48.9452 17.3893 49.3885 17.338C49.8365 17.282 50.2285 17.2283 50.5645 17.177L50.2005 17.401C50.2145 16.6543 50.0698 16.1013 49.7665 15.742C49.4632 15.3827 48.9358 15.203 48.1845 15.203C47.6665 15.203 47.2278 15.3197 46.8685 15.553C46.5138 15.7863 46.2642 16.155 46.1195 16.659L45.1185 16.365C45.2912 15.6883 45.6388 15.1633 46.1615 14.79C46.6842 14.4167 47.3632 14.23 48.1985 14.23C48.8892 14.23 49.4748 14.3607 49.9555 14.622C50.4408 14.8787 50.7838 15.252 50.9845 15.742C51.0778 15.9613 51.1385 16.2063 51.1665 16.477C51.1945 16.7477 51.2085 17.023 51.2085 17.303V22H50.2915V20.103L50.5575 20.215C50.3008 20.8637 49.9018 21.3583 49.3605 21.699C48.8192 22.0397 48.1705 22.21 47.4145 22.21ZM47.5335 21.321C48.0142 21.321 48.4342 21.2347 48.7935 21.062C49.1528 20.8893 49.4422 20.6537 49.6615 20.355C49.8808 20.0517 50.0232 19.711 50.0885 19.333C50.1445 19.0903 50.1748 18.8243 50.1795 18.535C50.1842 18.241 50.1865 18.0217 50.1865 17.877L50.5785 18.08C50.2285 18.1267 49.8482 18.1733 49.4375 18.22C49.0315 18.2667 48.6302 18.3203 48.2335 18.381C47.8415 18.4417 47.4868 18.514 47.1695 18.598C46.9548 18.6587 46.7472 18.745 46.5465 18.857C46.3458 18.9643 46.1802 19.109 46.0495 19.291C45.9235 19.473 45.8605 19.6993 45.8605 19.97C45.8605 20.1893 45.9142 20.4017 46.0215 20.607C46.1335 20.8123 46.3108 20.9827 46.5535 21.118C46.8008 21.2533 47.1275 21.321 47.5335 21.321ZM53.1708 13.005V11.85H54.1998V13.005H53.1708ZM53.1708 22V14.44H54.1998V22H53.1708ZM61.7584 22V18.143C61.7584 17.723 61.7187 17.338 61.6394 16.988C61.56 16.6333 61.4317 16.3253 61.2544 16.064C61.0817 15.798 60.8554 15.5927 60.5754 15.448C60.3 15.3033 59.964 15.231 59.5674 15.231C59.2034 15.231 58.8814 15.294 58.6014 15.42C58.326 15.546 58.0927 15.728 57.9014 15.966C57.7147 16.1993 57.5724 16.484 57.4744 16.82C57.3764 17.156 57.3274 17.5387 57.3274 17.968L56.5994 17.807C56.5994 17.0323 56.7347 16.3813 57.0054 15.854C57.276 15.3267 57.6494 14.9277 58.1254 14.657C58.6014 14.3863 59.1474 14.251 59.7634 14.251C60.216 14.251 60.6104 14.321 60.9464 14.461C61.287 14.601 61.574 14.79 61.8074 15.028C62.0454 15.266 62.2367 15.539 62.3814 15.847C62.526 16.1503 62.631 16.4747 62.6964 16.82C62.7617 17.1607 62.7944 17.5013 62.7944 17.842V22H61.7584ZM56.2914 22V14.44H57.2224V16.302H57.3274V22H56.2914ZM68.7269 22C68.3022 22.0887 67.8822 22.1237 67.4669 22.105C67.0562 22.0863 66.6875 21.9977 66.3609 21.839C66.0389 21.6803 65.7939 21.433 65.6259 21.097C65.4905 20.817 65.4159 20.5347 65.4019 20.25C65.3925 19.9607 65.3879 19.6317 65.3879 19.263V12.34H66.4099V19.221C66.4099 19.5383 66.4122 19.8043 66.4169 20.019C66.4262 20.229 66.4752 20.4157 66.5639 20.579C66.7319 20.8917 66.9979 21.0783 67.3619 21.139C67.7305 21.1997 68.1855 21.1857 68.7269 21.097V22ZM63.7709 15.322V14.44H68.7269V15.322H63.7709ZM73.1419 22.21C72.4046 22.21 71.7652 22.0467 71.2239 21.72C70.6872 21.3933 70.2696 20.9337 69.9709 20.341C69.6722 19.7483 69.5229 19.053 69.5229 18.255C69.5229 17.429 69.6699 16.715 69.9639 16.113C70.2579 15.511 70.6709 15.0467 71.2029 14.72C71.7396 14.3933 72.3719 14.23 73.0999 14.23C73.8466 14.23 74.4836 14.4027 75.0109 14.748C75.5382 15.0887 75.9372 15.5787 76.2079 16.218C76.4786 16.8573 76.6022 17.6203 76.5789 18.507H75.5289V18.143C75.5102 17.163 75.2979 16.4233 74.8919 15.924C74.4906 15.4247 73.9026 15.175 73.1279 15.175C72.3159 15.175 71.6929 15.4387 71.2589 15.966C70.8296 16.4933 70.6149 17.2447 70.6149 18.22C70.6149 19.172 70.8296 19.9117 71.2589 20.439C71.6929 20.9617 72.3066 21.223 73.0999 21.223C73.6412 21.223 74.1126 21.0993 74.5139 20.852C74.9199 20.6 75.2396 20.2383 75.4729 19.767L76.4319 20.138C76.1332 20.796 75.6922 21.307 75.1089 21.671C74.5302 22.0303 73.8746 22.21 73.1419 22.21ZM70.2509 18.507V17.646H76.0259V18.507H70.2509ZM83.3873 22V18.143C83.3873 17.723 83.3476 17.338 83.2683 16.988C83.1889 16.6333 83.0606 16.3253 82.8833 16.064C82.7106 15.798 82.4843 15.5927 82.2043 15.448C81.9289 15.3033 81.5929 15.231 81.1963 15.231C80.8323 15.231 80.5103 15.294 80.2303 15.42C79.9549 15.546 79.7216 15.728 79.5303 15.966C79.3436 16.1993 79.2013 16.484 79.1033 16.82C79.0053 17.156 78.9563 17.5387 78.9563 17.968L78.2283 17.807C78.2283 17.0323 78.3636 16.3813 78.6343 15.854C78.9049 15.3267 79.2783 14.9277 79.7543 14.657C80.2303 14.3863 80.7763 14.251 81.3923 14.251C81.8449 14.251 82.2393 14.321 82.5753 14.461C82.9159 14.601 83.2029 14.79 83.4363 15.028C83.6743 15.266 83.8656 15.539 84.0103 15.847C84.1549 16.1503 84.2599 16.4747 84.3253 16.82C84.3906 17.1607 84.4233 17.5013 84.4233 17.842V22H83.3873ZM77.9203 22V14.44H78.8513V16.302H78.9563V22H77.9203ZM88.4028 22.21C87.8334 22.21 87.3551 22.1073 86.9678 21.902C86.5851 21.6967 86.2981 21.4237 86.1068 21.083C85.9154 20.7423 85.8198 20.3713 85.8198 19.97C85.8198 19.5593 85.9014 19.2093 86.0648 18.92C86.2328 18.626 86.4591 18.3857 86.7438 18.199C87.0331 18.0123 87.3668 17.87 87.7448 17.772C88.1274 17.6787 88.5498 17.597 89.0118 17.527C89.4784 17.4523 89.9334 17.3893 90.3768 17.338C90.8248 17.282 91.2168 17.2283 91.5528 17.177L91.1888 17.401C91.2028 16.6543 91.0581 16.1013 90.7548 15.742C90.4514 15.3827 89.9241 15.203 89.1728 15.203C88.6548 15.203 88.2161 15.3197 87.8568 15.553C87.5021 15.7863 87.2524 16.155 87.1078 16.659L86.1068 16.365C86.2794 15.6883 86.6271 15.1633 87.1498 14.79C87.6724 14.4167 88.3514 14.23 89.1868 14.23C89.8774 14.23 90.4631 14.3607 90.9438 14.622C91.4291 14.8787 91.7721 15.252 91.9728 15.742C92.0661 15.9613 92.1268 16.2063 92.1548 16.477C92.1828 16.7477 92.1968 17.023 92.1968 17.303V22H91.2798V20.103L91.5458 20.215C91.2891 20.8637 90.8901 21.3583 90.3488 21.699C89.8074 22.0397 89.1588 22.21 88.4028 22.21ZM88.5218 21.321C89.0024 21.321 89.4224 21.2347 89.7818 21.062C90.1411 20.8893 90.4304 20.6537 90.6498 20.355C90.8691 20.0517 91.0114 19.711 91.0768 19.333C91.1328 19.0903 91.1631 18.8243 91.1678 18.535C91.1724 18.241 91.1748 18.0217 91.1748 17.877L91.5668 18.08C91.2168 18.1267 90.8364 18.1733 90.4258 18.22C90.0198 18.2667 89.6184 18.3203 89.2218 18.381C88.8298 18.4417 88.4751 18.514 88.1578 18.598C87.9431 18.6587 87.7354 18.745 87.5348 18.857C87.3341 18.9643 87.1684 19.109 87.0378 19.291C86.9118 19.473 86.8488 19.6993 86.8488 19.97C86.8488 20.1893 86.9024 20.4017 87.0098 20.607C87.1218 20.8123 87.2991 20.9827 87.5418 21.118C87.7891 21.2533 88.1158 21.321 88.5218 21.321ZM99.4791 22V18.143C99.4791 17.723 99.4394 17.338 99.3601 16.988C99.2807 16.6333 99.1524 16.3253 98.9751 16.064C98.8024 15.798 98.5761 15.5927 98.2961 15.448C98.0207 15.3033 97.6847 15.231 97.2881 15.231C96.9241 15.231 96.6021 15.294 96.3221 15.42C96.0467 15.546 95.8134 15.728 95.6221 15.966C95.4354 16.1993 95.2931 16.484 95.1951 16.82C95.0971 17.156 95.0481 17.5387 95.0481 17.968L94.3201 17.807C94.3201 17.0323 94.4554 16.3813 94.7261 15.854C94.9967 15.3267 95.3701 14.9277 95.8461 14.657C96.3221 14.3863 96.8681 14.251 97.4841 14.251C97.9367 14.251 98.3311 14.321 98.6671 14.461C99.0077 14.601 99.2947 14.79 99.5281 15.028C99.7661 15.266 99.9574 15.539 100.102 15.847C100.247 16.1503 100.352 16.4747 100.417 16.82C100.482 17.1607 100.515 17.5013 100.515 17.842V22H99.4791ZM94.0121 22V14.44H94.9431V16.302H95.0481V22H94.0121ZM105.427 22.21C104.666 22.21 104.022 22.0397 103.495 21.699C102.967 21.3583 102.566 20.8893 102.291 20.292C102.02 19.69 101.88 18.9993 101.871 18.22C101.88 17.4267 102.025 16.7313 102.305 16.134C102.585 15.532 102.988 15.0653 103.516 14.734C104.043 14.398 104.682 14.23 105.434 14.23C106.199 14.23 106.864 14.4167 107.429 14.79C107.998 15.1633 108.388 15.6743 108.598 16.323L107.59 16.645C107.412 16.1923 107.13 15.8423 106.743 15.595C106.36 15.343 105.921 15.217 105.427 15.217C104.871 15.217 104.412 15.3453 104.048 15.602C103.684 15.854 103.413 16.2063 103.236 16.659C103.058 17.1117 102.967 17.632 102.963 18.22C102.972 19.1253 103.182 19.8533 103.593 20.404C104.003 20.95 104.615 21.223 105.427 21.223C105.94 21.223 106.376 21.1063 106.736 20.873C107.1 20.635 107.375 20.2897 107.562 19.837L108.598 20.145C108.318 20.817 107.907 21.3303 107.366 21.685C106.824 22.035 106.178 22.21 105.427 22.21ZM113.036 22.21C112.299 22.21 111.66 22.0467 111.118 21.72C110.582 21.3933 110.164 20.9337 109.865 20.341C109.567 19.7483 109.417 19.053 109.417 18.255C109.417 17.429 109.564 16.715 109.858 16.113C110.152 15.511 110.565 15.0467 111.097 14.72C111.634 14.3933 112.266 14.23 112.994 14.23C113.741 14.23 114.378 14.4027 114.905 14.748C115.433 15.0887 115.832 15.5787 116.102 16.218C116.373 16.8573 116.497 17.6203 116.473 18.507H115.423V18.143C115.405 17.163 115.192 16.4233 114.786 15.924C114.385 15.4247 113.797 15.175 113.022 15.175C112.21 15.175 111.587 15.4387 111.153 15.966C110.724 16.4933 110.509 17.2447 110.509 18.22C110.509 19.172 110.724 19.9117 111.153 20.439C111.587 20.9617 112.201 21.223 112.994 21.223C113.536 21.223 114.007 21.0993 114.408 20.852C114.814 20.6 115.134 20.2383 115.367 19.767L116.326 20.138C116.028 20.796 115.587 21.307 115.003 21.671C114.425 22.0303 113.769 22.21 113.036 22.21ZM110.145 18.507V17.646H115.92V18.507H110.145Z" fill="#809FB8"/>
<path fill-rule="evenodd" clip-rule="evenodd" d="M9 16V13C9 11.8954 9.39052 10.9526 10.1716 10.1716C10.9526 9.39052 11.8954 9 13 9H19C20.1046 9 21.0474 9.39052 21.8284 10.1716C22.6095 10.9526 23 11.8954 23 13V19C23 20.1046 22.6095 21.0474 21.8284 21.8284C21.0474 22.6095 20.1046 23 19 23H13C11.8954 23 10.9526 22.6095 10.1716 21.8284C9.39052 21.0474 9 20.1046 9 19V16Z" fill="#FE6BBA"/>
</svg>
