<svg width="50" height="50" viewBox="0 0 50 50" fill="none" xmlns="http://www.w3.org/2000/svg">
<rect width="50" height="50" rx="5" fill="var(--color-cadetblue-100)"/>
<path d="M31.7917 21.125C31.7917 19.1111 30.975 17.2882 29.6567 15.9698C28.3369 14.65 26.514 13.8334 24.5 13.8334C22.486 13.8334 20.6631 14.65 19.3433 15.9698C18.025 17.2882 17.2083 19.1111 17.2083 21.125C17.2083 23.139 18.025 24.9619 19.3433 26.2802C20.6631 27.6 22.486 28.4167 24.5 28.4167C26.514 28.4167 28.3369 27.6 29.6567 26.2802C30.3346 25.604 30.8722 24.8004 31.2386 23.9157C31.605 23.031 31.7929 22.0826 31.7917 21.125ZM15.75 35.7084C15.75 37.1667 19.0312 38.625 24.5 38.625C29.6304 38.625 33.25 37.1667 33.25 35.7084C33.25 32.7917 29.8171 29.875 24.5 29.875C19.0312 29.875 15.75 32.7917 15.75 35.7084Z" fill="white"/>
</svg>
