<svg width="144" height="32" viewBox="0 0 144 32" fill="none" xmlns="http://www.w3.org/2000/svg">
<path fill-rule="evenodd" clip-rule="evenodd" d="M0 16V8C0 5.79086 0.921893 3.90524 2.76568 2.34315C4.60947 0.781049 6.83511 0 9.44262 0H134.557C137.165 0 139.391 0.781049 141.234 2.34315C143.078 3.90524 144 5.79086 144 8V24C144 26.2091 143.078 28.0948 141.234 29.6569C139.391 31.219 137.165 32 134.557 32H9.44262C6.83511 32 4.60947 31.219 2.76568 29.6569C0.921893 28.0948 0 26.2091 0 24V16Z" fill="#F7F8FA"/>
<path d="M31.78 22L35.252 11.92H36.617L40.089 22H39.018L35.721 12.494H36.127L32.851 22H31.78ZM33.327 19.557V18.591H38.535V19.557H33.327ZM41.493 22V11.71H42.522V22H41.493ZM44.7606 22V11.71H45.7896V22H44.7606ZM51.0452 22.21C50.2939 22.21 49.6522 22.0397 49.1202 21.699C48.5882 21.3583 48.1799 20.887 47.8952 20.285C47.6105 19.683 47.4682 18.9923 47.4682 18.213C47.4682 17.4197 47.6129 16.7243 47.9022 16.127C48.1915 15.5297 48.6022 15.0653 49.1342 14.734C49.6709 14.398 50.3079 14.23 51.0452 14.23C51.8012 14.23 52.4452 14.4003 52.9772 14.741C53.5139 15.077 53.9222 15.546 54.2022 16.148C54.4869 16.7453 54.6292 17.4337 54.6292 18.213C54.6292 19.0063 54.4869 19.704 54.2022 20.306C53.9175 20.9033 53.5069 21.37 52.9702 21.706C52.4335 22.042 51.7919 22.21 51.0452 22.21ZM51.0452 21.223C51.8852 21.223 52.5105 20.9453 52.9212 20.39C53.3319 19.83 53.5372 19.1043 53.5372 18.213C53.5372 17.2983 53.3295 16.5703 52.9142 16.029C52.5035 15.4877 51.8805 15.217 51.0452 15.217C50.4805 15.217 50.0139 15.3453 49.6452 15.602C49.2812 15.854 49.0082 16.2063 48.8262 16.659C48.6489 17.107 48.5602 17.625 48.5602 18.213C48.5602 19.123 48.7702 19.8533 49.1902 20.404C49.6102 20.95 50.2285 21.223 51.0452 21.223ZM60.2894 22C59.8647 22.0887 59.4447 22.1237 59.0294 22.105C58.6187 22.0863 58.25 21.9977 57.9234 21.839C57.6014 21.6803 57.3564 21.433 57.1884 21.097C57.053 20.817 56.9784 20.5347 56.9644 20.25C56.955 19.9607 56.9504 19.6317 56.9504 19.263V12.34H57.9724V19.221C57.9724 19.5383 57.9747 19.8043 57.9794 20.019C57.9887 20.229 58.0377 20.4157 58.1264 20.579C58.2944 20.8917 58.5604 21.0783 58.9244 21.139C59.293 21.1997 59.748 21.1857 60.2894 21.097V22ZM55.3334 15.322V14.44H60.2894V15.322H55.3334ZM65.0564 22C64.6317 22.0887 64.2117 22.1237 63.7964 22.105C63.3857 22.0863 63.017 21.9977 62.6904 21.839C62.3684 21.6803 62.1234 21.433 61.9554 21.097C61.82 20.817 61.7454 20.5347 61.7314 20.25C61.722 19.9607 61.7174 19.6317 61.7174 19.263V12.34H62.7394V19.221C62.7394 19.5383 62.7417 19.8043 62.7464 20.019C62.7557 20.229 62.8047 20.4157 62.8934 20.579C63.0614 20.8917 63.3274 21.0783 63.6914 21.139C64.06 21.1997 64.515 21.1857 65.0564 21.097V22ZM60.1004 15.322V14.44H65.0564V15.322H60.1004ZM69.7493 22.21C69.012 22.21 68.3726 22.0467 67.8313 21.72C67.2946 21.3933 66.877 20.9337 66.5783 20.341C66.2796 19.7483 66.1303 19.053 66.1303 18.255C66.1303 17.429 66.2773 16.715 66.5713 16.113C66.8653 15.511 67.2783 15.0467 67.8103 14.72C68.347 14.3933 68.9793 14.23 69.7073 14.23C70.454 14.23 71.091 14.4027 71.6183 14.748C72.1456 15.0887 72.5446 15.5787 72.8153 16.218C73.086 16.8573 73.2096 17.6203 73.1863 18.507H72.1363V18.143C72.1176 17.163 71.9053 16.4233 71.4993 15.924C71.098 15.4247 70.51 15.175 69.7353 15.175C68.9233 15.175 68.3003 15.4387 67.8663 15.966C67.437 16.4933 67.2223 17.2447 67.2223 18.22C67.2223 19.172 67.437 19.9117 67.8663 20.439C68.3003 20.9617 68.914 21.223 69.7073 21.223C70.2486 21.223 70.72 21.0993 71.1213 20.852C71.5273 20.6 71.847 20.2383 72.0803 19.767L73.0393 20.138C72.7406 20.796 72.2996 21.307 71.7163 21.671C71.1376 22.0303 70.482 22.21 69.7493 22.21ZM66.8583 18.507V17.646H72.6333V18.507H66.8583ZM77.6728 22.21C76.9681 22.21 76.3661 22.035 75.8668 21.685C75.3674 21.3303 74.9848 20.852 74.7188 20.25C74.4528 19.648 74.3198 18.969 74.3198 18.213C74.3198 17.4617 74.4504 16.785 74.7118 16.183C74.9778 15.581 75.3581 15.105 75.8528 14.755C76.3474 14.405 76.9401 14.23 77.6308 14.23C78.3401 14.23 78.9374 14.4027 79.4228 14.748C79.9081 15.0933 80.2744 15.567 80.5218 16.169C80.7738 16.7663 80.8998 17.4477 80.8998 18.213C80.8998 18.9643 80.7761 19.6433 80.5288 20.25C80.2814 20.852 79.9174 21.3303 79.4368 21.685C78.9561 22.035 78.3681 22.21 77.6728 22.21ZM77.7778 21.251C78.3144 21.251 78.7578 21.1203 79.1078 20.859C79.4578 20.5977 79.7191 20.2383 79.8918 19.781C80.0644 19.319 80.1508 18.7963 80.1508 18.213C80.1508 17.6203 80.0644 17.0977 79.8918 16.645C79.7191 16.1877 79.4578 15.8307 79.1078 15.574C78.7624 15.3173 78.3261 15.189 77.7988 15.189C77.2574 15.189 76.8094 15.322 76.4548 15.588C76.1001 15.854 75.8364 16.2157 75.6638 16.673C75.4958 17.1303 75.4118 17.6437 75.4118 18.213C75.4118 18.787 75.4981 19.305 75.6708 19.767C75.8481 20.2243 76.1118 20.586 76.4618 20.852C76.8118 21.118 77.2504 21.251 77.7778 21.251ZM80.1508 22V16.309H80.0388V11.92H81.0748V22H80.1508ZM85.8413 22V11.92H89.7333C89.8313 11.92 89.941 11.9247 90.0623 11.934C90.1883 11.9387 90.3143 11.9527 90.4403 11.976C90.9677 12.0553 91.4133 12.2397 91.7773 12.529C92.146 12.8137 92.4237 13.173 92.6103 13.607C92.8017 14.041 92.8973 14.5217 92.8973 15.049C92.8973 15.8097 92.6967 16.47 92.2953 17.03C91.894 17.59 91.32 17.9423 90.5733 18.087L90.2163 18.171H86.8703V22H85.8413ZM91.9453 22L89.9573 17.898L90.9443 17.52L93.1283 22H91.9453ZM86.8703 17.191H89.7053C89.7893 17.191 89.8873 17.1863 89.9993 17.177C90.1113 17.1677 90.221 17.1513 90.3283 17.128C90.6737 17.0533 90.956 16.911 91.1753 16.701C91.3993 16.491 91.565 16.2413 91.6723 15.952C91.7843 15.6627 91.8403 15.3617 91.8403 15.049C91.8403 14.7363 91.7843 14.4353 91.6723 14.146C91.565 13.852 91.3993 13.6 91.1753 13.39C90.956 13.18 90.6737 13.0377 90.3283 12.963C90.221 12.9397 90.1113 12.9257 89.9993 12.921C89.8873 12.9117 89.7893 12.907 89.7053 12.907H86.8703V17.191ZM97.8304 22.21C97.079 22.21 96.4374 22.0397 95.9054 21.699C95.3734 21.3583 94.965 20.887 94.6804 20.285C94.3957 19.683 94.2534 18.9923 94.2534 18.213C94.2534 17.4197 94.398 16.7243 94.6874 16.127C94.9767 15.5297 95.3874 15.0653 95.9194 14.734C96.456 14.398 97.093 14.23 97.8304 14.23C98.5864 14.23 99.2304 14.4003 99.7624 14.741C100.299 15.077 100.707 15.546 100.987 16.148C101.272 16.7453 101.414 17.4337 101.414 18.213C101.414 19.0063 101.272 19.704 100.987 20.306C100.703 20.9033 100.292 21.37 99.7554 21.706C99.2187 22.042 98.577 22.21 97.8304 22.21ZM97.8304 21.223C98.6704 21.223 99.2957 20.9453 99.7064 20.39C100.117 19.83 100.322 19.1043 100.322 18.213C100.322 17.2983 100.115 16.5703 99.6994 16.029C99.2887 15.4877 98.6657 15.217 97.8304 15.217C97.2657 15.217 96.799 15.3453 96.4304 15.602C96.0664 15.854 95.7934 16.2063 95.6114 16.659C95.434 17.107 95.3454 17.625 95.3454 18.213C95.3454 19.123 95.5554 19.8533 95.9754 20.404C96.3954 20.95 97.0137 21.223 97.8304 21.223ZM106.116 22.21C105.364 22.21 104.723 22.0397 104.191 21.699C103.659 21.3583 103.25 20.887 102.966 20.285C102.681 19.683 102.539 18.9923 102.539 18.213C102.539 17.4197 102.683 16.7243 102.973 16.127C103.262 15.5297 103.673 15.0653 104.205 14.734C104.741 14.398 105.378 14.23 106.116 14.23C106.872 14.23 107.516 14.4003 108.048 14.741C108.584 15.077 108.993 15.546 109.273 16.148C109.557 16.7453 109.7 17.4337 109.7 18.213C109.7 19.0063 109.557 19.704 109.273 20.306C108.988 20.9033 108.577 21.37 108.041 21.706C107.504 22.042 106.862 22.21 106.116 22.21ZM106.116 21.223C106.956 21.223 107.581 20.9453 107.992 20.39C108.402 19.83 108.608 19.1043 108.608 18.213C108.608 17.2983 108.4 16.5703 107.985 16.029C107.574 15.4877 106.951 15.217 106.116 15.217C105.551 15.217 105.084 15.3453 104.716 15.602C104.352 15.854 104.079 16.2063 103.897 16.659C103.719 17.107 103.631 17.625 103.631 18.213C103.631 19.123 103.841 19.8533 104.261 20.404C104.681 20.95 105.299 21.223 106.116 21.223ZM120.26 22L120.267 17.037C120.267 16.4537 120.103 15.9963 119.777 15.665C119.455 15.329 119.044 15.161 118.545 15.161C118.26 15.161 117.982 15.2263 117.712 15.357C117.441 15.4877 117.217 15.6977 117.04 15.987C116.867 16.2763 116.781 16.6543 116.781 17.121L116.172 16.946C116.158 16.4047 116.263 15.931 116.487 15.525C116.715 15.119 117.028 14.804 117.425 14.58C117.826 14.3513 118.279 14.237 118.783 14.237C119.543 14.237 120.152 14.4727 120.61 14.944C121.067 15.4107 121.296 16.043 121.296 16.841L121.289 22H120.26ZM111.237 22V14.44H112.161V16.302H112.273V22H111.237ZM115.759 22L115.766 17.107C115.766 16.505 115.605 16.0313 115.283 15.686C114.965 15.336 114.545 15.161 114.023 15.161C113.5 15.161 113.078 15.3407 112.756 15.7C112.434 16.0547 112.273 16.5283 112.273 17.121L111.657 16.785C111.657 16.2997 111.771 15.8657 112 15.483C112.228 15.0957 112.541 14.7923 112.938 14.573C113.334 14.349 113.785 14.237 114.289 14.237C114.769 14.237 115.196 14.3397 115.57 14.545C115.948 14.7503 116.244 15.049 116.459 15.441C116.673 15.833 116.781 16.309 116.781 16.869L116.774 22H115.759ZM125.932 22.203C125.045 22.203 124.315 22.0117 123.741 21.629C123.172 21.2463 122.822 20.7143 122.691 20.033L123.741 19.858C123.853 20.2873 124.107 20.6303 124.504 20.887C124.905 21.139 125.4 21.265 125.988 21.265C126.562 21.265 127.015 21.146 127.346 20.908C127.677 20.6653 127.843 20.3363 127.843 19.921C127.843 19.6877 127.789 19.4987 127.682 19.354C127.579 19.2047 127.367 19.067 127.045 18.941C126.723 18.815 126.242 18.6657 125.603 18.493C124.917 18.3063 124.38 18.1197 123.993 17.933C123.606 17.7463 123.33 17.5317 123.167 17.289C123.004 17.0417 122.922 16.7407 122.922 16.386C122.922 15.9567 123.043 15.581 123.286 15.259C123.529 14.9323 123.865 14.6803 124.294 14.503C124.723 14.321 125.223 14.23 125.792 14.23C126.361 14.23 126.87 14.3233 127.318 14.51C127.771 14.692 128.135 14.9487 128.41 15.28C128.685 15.6113 128.849 15.9963 128.9 16.435L127.85 16.624C127.78 16.1807 127.558 15.8307 127.185 15.574C126.816 15.3127 126.347 15.1773 125.778 15.168C125.241 15.154 124.805 15.2567 124.469 15.476C124.133 15.6907 123.965 15.9777 123.965 16.337C123.965 16.5377 124.026 16.7103 124.147 16.855C124.268 16.995 124.488 17.128 124.805 17.254C125.127 17.38 125.584 17.5177 126.177 17.667C126.872 17.8443 127.418 18.031 127.815 18.227C128.212 18.423 128.494 18.654 128.662 18.92C128.83 19.186 128.914 19.515 128.914 19.907C128.914 20.621 128.648 21.1833 128.116 21.594C127.589 22 126.861 22.203 125.932 22.203Z" fill="#809FB8"/>
<path fill-rule="evenodd" clip-rule="evenodd" d="M9 16V13C9 11.8954 9.39052 10.9526 10.1716 10.1716C10.9526 9.39052 11.8954 9 13 9H19C20.1046 9 21.0474 9.39052 21.8284 10.1716C22.6095 10.9526 23 11.8954 23 13V19C23 20.1046 22.6095 21.0474 21.8284 21.8284C21.0474 22.6095 20.1046 23 19 23H13C11.8954 23 10.9526 22.6095 10.1716 21.8284C9.39052 21.0474 9 20.1046 9 19V16Z" fill="#0090FF"/>
</svg>
