<svg width="227" height="226" viewBox="0 0 227 226" fill="none" xmlns="http://www.w3.org/2000/svg">
<path fill-rule="evenodd" clip-rule="evenodd" d="M116.064 5.49049C116.066 3.96144 116.706 2.50244 117.829 1.46367C118.953 0.424927 120.459 -0.0997351 121.986 0.0157075C168.555 3.44263 208.252 35.0293 221.983 79.5823C235.714 124.135 220.669 172.535 184.085 201.502C147.5 230.468 96.8646 234.072 56.5337 210.58C55.2084 209.816 54.2626 208.535 53.9245 207.045C53.5862 205.556 53.8861 203.993 54.752 202.733L67.2543 184.548C68.8668 182.208 71.9966 181.472 74.4857 182.849C103.069 198.85 138.523 195.921 164.082 175.446C189.641 154.971 200.185 121.053 190.727 89.7299C181.269 58.4071 153.706 35.9557 121.07 32.9917C118.237 32.7338 116.068 30.365 116.063 27.5258L116.064 5.49049Z" fill="#0090FF"/>
<path fill-rule="evenodd" clip-rule="evenodd" d="M50.7063 199.975C49.8378 201.235 48.4842 202.078 46.9687 202.304C45.4532 202.529 43.912 202.117 42.7131 201.164C16.5477 180.401 0.925012 149.146 0.0397184 115.79C-0.845453 82.4346 13.0976 50.3972 38.1248 28.2804C39.2718 27.266 40.7891 26.7726 42.3146 26.9181C43.84 27.0636 45.2364 27.835 46.17 29.0479L59.6185 46.5499C61.349 48.8003 61.0718 51.9973 58.9798 53.9176C41.9362 69.5667 32.5068 91.8107 33.1209 114.919C33.735 138.028 44.3325 159.741 62.1834 174.466C64.3744 176.274 64.8206 179.452 63.2117 181.791L50.7063 199.975Z" fill="#FFB536"/>
<path fill-rule="evenodd" clip-rule="evenodd" d="M50.0645 26.0856C49.1332 24.8739 48.7506 23.3292 49.0091 21.8238C49.2676 20.3184 50.1437 18.989 51.4262 18.1562C67.5405 7.66817 86.0548 1.42807 105.24 0.0186372C106.767 -0.0967749 108.273 0.427948 109.397 1.46678C110.521 2.50558 111.16 3.96464 111.162 5.49349L111.162 27.5248C111.157 30.3641 108.988 32.7327 106.156 32.9907C93.6083 34.1511 81.5076 38.2294 70.8233 44.8988C68.4113 46.4037 65.2487 45.8346 63.5149 43.5835L50.0645 26.0856Z" fill="#FE6BBA"/>
<path d="M68.325 132L80.725 101.7H65V96H87.175V101.7L74.825 132H68.325ZM103.835 132.75C102.002 132.75 100.293 132.375 98.7102 131.625C97.1268 130.858 95.7602 129.808 94.6102 128.475C93.4768 127.142 92.6602 125.592 92.1602 123.825L97.9602 122.275C98.1935 123.242 98.6185 124.075 99.2352 124.775C99.8685 125.475 100.602 126.017 101.435 126.4C102.285 126.783 103.16 126.975 104.06 126.975C105.227 126.975 106.293 126.692 107.26 126.125C108.227 125.558 108.993 124.8 109.56 123.85C110.127 122.883 110.41 121.817 110.41 120.65C110.41 119.483 110.118 118.425 109.535 117.475C108.968 116.508 108.202 115.75 107.235 115.2C106.268 114.633 105.21 114.35 104.06 114.35C102.677 114.35 101.527 114.6 100.61 115.1C99.7102 115.6 99.0185 116.133 98.5352 116.7L93.3852 115.05L94.4852 96H114.035V101.65H97.7102L99.9602 99.525L99.1602 112.775L98.0602 111.425C98.9935 110.575 100.077 109.942 101.31 109.525C102.543 109.108 103.735 108.9 104.885 108.9C107.135 108.9 109.127 109.417 110.86 110.45C112.61 111.467 113.977 112.858 114.96 114.625C115.96 116.392 116.46 118.4 116.46 120.65C116.46 122.9 115.877 124.942 114.71 126.775C113.543 128.592 112.002 130.042 110.085 131.125C108.185 132.208 106.102 132.75 103.835 132.75ZM127.457 132L123.457 128L155.482 96L159.482 100.025L127.457 132ZM151.982 132.75C150.332 132.75 148.824 132.35 147.457 131.55C146.107 130.733 145.024 129.65 144.207 128.3C143.39 126.933 142.982 125.417 142.982 123.75C142.982 122.117 143.399 120.617 144.232 119.25C145.065 117.883 146.165 116.792 147.532 115.975C148.899 115.158 150.382 114.75 151.982 114.75C153.632 114.75 155.14 115.158 156.507 115.975C157.874 116.775 158.957 117.858 159.757 119.225C160.574 120.575 160.982 122.083 160.982 123.75C160.982 125.417 160.574 126.933 159.757 128.3C158.957 129.65 157.874 130.733 156.507 131.55C155.14 132.35 153.632 132.75 151.982 132.75ZM151.982 127.6C152.665 127.6 153.299 127.425 153.882 127.075C154.482 126.725 154.957 126.258 155.307 125.675C155.657 125.092 155.832 124.45 155.832 123.75C155.832 123.05 155.657 122.408 155.307 121.825C154.957 121.242 154.482 120.775 153.882 120.425C153.299 120.075 152.665 119.9 151.982 119.9C151.282 119.9 150.64 120.075 150.057 120.425C149.474 120.775 148.999 121.242 148.632 121.825C148.282 122.408 148.107 123.05 148.107 123.75C148.107 124.45 148.282 125.092 148.632 125.675C148.999 126.258 149.474 126.725 150.057 127.075C150.64 127.425 151.282 127.6 151.982 127.6ZM130.957 113.25C129.307 113.25 127.799 112.85 126.432 112.05C125.065 111.233 123.974 110.15 123.157 108.8C122.357 107.433 121.957 105.917 121.957 104.25C121.957 102.617 122.374 101.117 123.207 99.75C124.04 98.3833 125.14 97.2917 126.507 96.475C127.874 95.6583 129.357 95.25 130.957 95.25C132.607 95.25 134.107 95.6583 135.457 96.475C136.824 97.275 137.915 98.3583 138.732 99.725C139.549 101.075 139.957 102.583 139.957 104.25C139.957 105.917 139.549 107.433 138.732 108.8C137.915 110.15 136.824 111.233 135.457 112.05C134.107 112.85 132.607 113.25 130.957 113.25ZM130.957 108.1C131.657 108.1 132.299 107.925 132.882 107.575C133.465 107.225 133.932 106.758 134.282 106.175C134.632 105.592 134.807 104.95 134.807 104.25C134.807 103.55 134.632 102.908 134.282 102.325C133.932 101.742 133.465 101.275 132.882 100.925C132.299 100.575 131.657 100.4 130.957 100.4C130.257 100.4 129.615 100.575 129.032 100.925C128.449 101.275 127.982 101.742 127.632 102.325C127.282 102.908 127.107 103.55 127.107 104.25C127.107 104.95 127.282 105.592 127.632 106.175C127.982 106.758 128.449 107.225 129.032 107.575C129.615 107.925 130.257 108.1 130.957 108.1Z" fill="#06152B"/>
</svg>
