<svg width="144" height="32" viewBox="0 0 144 32" fill="none" xmlns="http://www.w3.org/2000/svg">
<path fill-rule="evenodd" clip-rule="evenodd" d="M0 16V8C0 5.79086 0.871868 3.90524 2.6156 2.34315C4.35934 0.781049 6.46422 0 8.93023 0H135.07C137.536 0 139.641 0.781049 141.384 2.34315C143.128 3.90524 144 5.79086 144 8V24C144 26.2091 143.128 28.0948 141.384 29.6569C139.641 31.219 137.536 32 135.07 32H8.93023C6.46422 32 4.35934 31.219 2.6156 29.6569C0.871868 28.0948 0 26.2091 0 24V16Z" fill="#F7F8FA"/>
<path d="M32.98 22V11.92H36.872C36.97 11.92 37.0797 11.9247 37.201 11.934C37.327 11.9387 37.453 11.9527 37.579 11.976C38.1063 12.0553 38.552 12.2397 38.916 12.529C39.2847 12.8137 39.5623 13.173 39.749 13.607C39.9403 14.041 40.036 14.5217 40.036 15.049C40.036 15.8097 39.8353 16.47 39.434 17.03C39.0327 17.59 38.4587 17.9423 37.712 18.087L37.355 18.171H34.009V22H32.98ZM39.084 22L37.096 17.898L38.083 17.52L40.267 22H39.084ZM34.009 17.191H36.844C36.928 17.191 37.026 17.1863 37.138 17.177C37.25 17.1677 37.3597 17.1513 37.467 17.128C37.8123 17.0533 38.0947 16.911 38.314 16.701C38.538 16.491 38.7037 16.2413 38.811 15.952C38.923 15.6627 38.979 15.3617 38.979 15.049C38.979 14.7363 38.923 14.4353 38.811 14.146C38.7037 13.852 38.538 13.6 38.314 13.39C38.0947 13.18 37.8123 13.0377 37.467 12.963C37.3597 12.9397 37.25 12.9257 37.138 12.921C37.026 12.9117 36.928 12.907 36.844 12.907H34.009V17.191ZM45.011 22.21C44.2737 22.21 43.6344 22.0467 43.093 21.72C42.5564 21.3933 42.1387 20.9337 41.84 20.341C41.5414 19.7483 41.392 19.053 41.392 18.255C41.392 17.429 41.539 16.715 41.833 16.113C42.127 15.511 42.54 15.0467 43.072 14.72C43.6087 14.3933 44.241 14.23 44.969 14.23C45.7157 14.23 46.3527 14.4027 46.88 14.748C47.4074 15.0887 47.8064 15.5787 48.077 16.218C48.3477 16.8573 48.4714 17.6203 48.448 18.507H47.398V18.143C47.3794 17.163 47.167 16.4233 46.761 15.924C46.3597 15.4247 45.7717 15.175 44.997 15.175C44.185 15.175 43.562 15.4387 43.128 15.966C42.6987 16.4933 42.484 17.2447 42.484 18.22C42.484 19.172 42.6987 19.9117 43.128 20.439C43.562 20.9617 44.1757 21.223 44.969 21.223C45.5104 21.223 45.9817 21.0993 46.383 20.852C46.789 20.6 47.1087 20.2383 47.342 19.767L48.301 20.138C48.0024 20.796 47.5614 21.307 46.978 21.671C46.3994 22.0303 45.7437 22.21 45.011 22.21ZM42.12 18.507V17.646H47.895V18.507H42.12ZM58.8124 22L58.8194 17.037C58.8194 16.4537 58.6561 15.9963 58.3294 15.665C58.0074 15.329 57.5967 15.161 57.0974 15.161C56.8127 15.161 56.5351 15.2263 56.2644 15.357C55.9937 15.4877 55.7697 15.6977 55.5924 15.987C55.4197 16.2763 55.3334 16.6543 55.3334 17.121L54.7244 16.946C54.7104 16.4047 54.8154 15.931 55.0394 15.525C55.2681 15.119 55.5807 14.804 55.9774 14.58C56.3787 14.3513 56.8314 14.237 57.3354 14.237C58.0961 14.237 58.7051 14.4727 59.1624 14.944C59.6197 15.4107 59.8484 16.043 59.8484 16.841L59.8414 22H58.8124ZM49.7894 22V14.44H50.7134V16.302H50.8254V22H49.7894ZM54.3114 22L54.3184 17.107C54.3184 16.505 54.1574 16.0313 53.8354 15.686C53.5181 15.336 53.0981 15.161 52.5754 15.161C52.0527 15.161 51.6304 15.3407 51.3084 15.7C50.9864 16.0547 50.8254 16.5283 50.8254 17.121L50.2094 16.785C50.2094 16.2997 50.3237 15.8657 50.5524 15.483C50.7811 15.0957 51.0937 14.7923 51.4904 14.573C51.8871 14.349 52.3374 14.237 52.8414 14.237C53.3221 14.237 53.7491 14.3397 54.1224 14.545C54.5004 14.7503 54.7967 15.049 55.0114 15.441C55.2261 15.833 55.3334 16.309 55.3334 16.869L55.3264 22H54.3114ZM63.8266 22.21C63.2573 22.21 62.7789 22.1073 62.3916 21.902C62.0089 21.6967 61.7219 21.4237 61.5306 21.083C61.3393 20.7423 61.2436 20.3713 61.2436 19.97C61.2436 19.5593 61.3253 19.2093 61.4886 18.92C61.6566 18.626 61.8829 18.3857 62.1676 18.199C62.4569 18.0123 62.7906 17.87 63.1686 17.772C63.5513 17.6787 63.9736 17.597 64.4356 17.527C64.9023 17.4523 65.3573 17.3893 65.8006 17.338C66.2486 17.282 66.6406 17.2283 66.9766 17.177L66.6126 17.401C66.6266 16.6543 66.4819 16.1013 66.1786 15.742C65.8753 15.3827 65.3479 15.203 64.5966 15.203C64.0786 15.203 63.6399 15.3197 63.2806 15.553C62.9259 15.7863 62.6763 16.155 62.5316 16.659L61.5306 16.365C61.7033 15.6883 62.0509 15.1633 62.5736 14.79C63.0963 14.4167 63.7753 14.23 64.6106 14.23C65.3013 14.23 65.8869 14.3607 66.3676 14.622C66.8529 14.8787 67.1959 15.252 67.3966 15.742C67.4899 15.9613 67.5506 16.2063 67.5786 16.477C67.6066 16.7477 67.6206 17.023 67.6206 17.303V22H66.7036V20.103L66.9696 20.215C66.7129 20.8637 66.3139 21.3583 65.7726 21.699C65.2313 22.0397 64.5826 22.21 63.8266 22.21ZM63.9456 21.321C64.4263 21.321 64.8463 21.2347 65.2056 21.062C65.5649 20.8893 65.8543 20.6537 66.0736 20.355C66.2929 20.0517 66.4353 19.711 66.5006 19.333C66.5566 19.0903 66.5869 18.8243 66.5916 18.535C66.5963 18.241 66.5986 18.0217 66.5986 17.877L66.9906 18.08C66.6406 18.1267 66.2603 18.1733 65.8496 18.22C65.4436 18.2667 65.0423 18.3203 64.6456 18.381C64.2536 18.4417 63.8989 18.514 63.5816 18.598C63.3669 18.6587 63.1593 18.745 62.9586 18.857C62.7579 18.9643 62.5923 19.109 62.4616 19.291C62.3356 19.473 62.2726 19.6993 62.2726 19.97C62.2726 20.1893 62.3263 20.4017 62.4336 20.607C62.5456 20.8123 62.7229 20.9827 62.9656 21.118C63.2129 21.2533 63.5396 21.321 63.9456 21.321ZM69.5829 13.005V11.85H70.6119V13.005H69.5829ZM69.5829 22V14.44H70.6119V22H69.5829ZM78.1705 22V18.143C78.1705 17.723 78.1308 17.338 78.0515 16.988C77.9721 16.6333 77.8438 16.3253 77.6665 16.064C77.4938 15.798 77.2675 15.5927 76.9875 15.448C76.7121 15.3033 76.3761 15.231 75.9795 15.231C75.6155 15.231 75.2935 15.294 75.0135 15.42C74.7381 15.546 74.5048 15.728 74.3135 15.966C74.1268 16.1993 73.9845 16.484 73.8865 16.82C73.7885 17.156 73.7395 17.5387 73.7395 17.968L73.0115 17.807C73.0115 17.0323 73.1468 16.3813 73.4175 15.854C73.6881 15.3267 74.0615 14.9277 74.5375 14.657C75.0135 14.3863 75.5595 14.251 76.1755 14.251C76.6281 14.251 77.0225 14.321 77.3585 14.461C77.6991 14.601 77.9861 14.79 78.2195 15.028C78.4575 15.266 78.6488 15.539 78.7935 15.847C78.9381 16.1503 79.0431 16.4747 79.1085 16.82C79.1738 17.1607 79.2065 17.5013 79.2065 17.842V22H78.1705ZM72.7035 22V14.44H73.6345V16.302H73.7395V22H72.7035ZM81.163 13.005V11.85H82.192V13.005H81.163ZM81.163 22V14.44H82.192V22H81.163ZM89.7505 22V18.143C89.7505 17.723 89.7109 17.338 89.6315 16.988C89.5522 16.6333 89.4239 16.3253 89.2465 16.064C89.0739 15.798 88.8475 15.5927 88.5675 15.448C88.2922 15.3033 87.9562 15.231 87.5595 15.231C87.1955 15.231 86.8735 15.294 86.5935 15.42C86.3182 15.546 86.0849 15.728 85.8935 15.966C85.7069 16.1993 85.5645 16.484 85.4665 16.82C85.3685 17.156 85.3195 17.5387 85.3195 17.968L84.5915 17.807C84.5915 17.0323 84.7269 16.3813 84.9975 15.854C85.2682 15.3267 85.6415 14.9277 86.1175 14.657C86.5935 14.3863 87.1395 14.251 87.7555 14.251C88.2082 14.251 88.6025 14.321 88.9385 14.461C89.2792 14.601 89.5662 14.79 89.7995 15.028C90.0375 15.266 90.2289 15.539 90.3735 15.847C90.5182 16.1503 90.6232 16.4747 90.6885 16.82C90.7539 17.1607 90.7865 17.5013 90.7865 17.842V22H89.7505ZM84.2835 22V14.44H85.2145V16.302H85.3195V22H84.2835ZM95.606 25.57C95.2187 25.57 94.836 25.5117 94.458 25.395C94.0847 25.283 93.7394 25.1033 93.422 24.856C93.1047 24.6133 92.8387 24.296 92.624 23.904L93.555 23.386C93.765 23.806 94.059 24.107 94.437 24.289C94.8197 24.4757 95.2094 24.569 95.606 24.569C96.152 24.569 96.593 24.4663 96.929 24.261C97.2697 24.0603 97.517 23.7617 97.671 23.365C97.825 22.9683 97.8997 22.4737 97.895 21.881V19.865H98.014V14.44H98.931V21.895C98.931 22.1097 98.924 22.315 98.91 22.511C98.9007 22.7117 98.8797 22.9077 98.847 23.099C98.7584 23.6637 98.574 24.128 98.294 24.492C98.0187 24.856 97.6547 25.1267 97.202 25.304C96.754 25.4813 96.222 25.57 95.606 25.57ZM95.536 22.21C94.8314 22.21 94.2294 22.035 93.73 21.685C93.2307 21.3303 92.848 20.852 92.582 20.25C92.316 19.648 92.183 18.969 92.183 18.213C92.183 17.4617 92.3137 16.785 92.575 16.183C92.841 15.581 93.2214 15.105 93.716 14.755C94.2107 14.405 94.8034 14.23 95.494 14.23C96.2034 14.23 96.8007 14.4027 97.286 14.748C97.7714 15.0933 98.1377 15.567 98.385 16.169C98.637 16.7663 98.763 17.4477 98.763 18.213C98.763 18.9643 98.6394 19.6433 98.392 20.25C98.1447 20.852 97.7807 21.3303 97.3 21.685C96.8194 22.035 96.2314 22.21 95.536 22.21ZM95.641 21.251C96.1777 21.251 96.621 21.1203 96.971 20.859C97.321 20.5977 97.5824 20.2383 97.755 19.781C97.9277 19.319 98.014 18.7963 98.014 18.213C98.014 17.6203 97.9277 17.0977 97.755 16.645C97.5824 16.1877 97.321 15.8307 96.971 15.574C96.6257 15.3173 96.1894 15.189 95.662 15.189C95.1207 15.189 94.6727 15.322 94.318 15.588C93.9634 15.854 93.6997 16.2157 93.527 16.673C93.359 17.1303 93.275 17.6437 93.275 18.213C93.275 18.787 93.3614 19.305 93.534 19.767C93.7114 20.2243 93.975 20.586 94.325 20.852C94.675 21.118 95.1137 21.251 95.641 21.251ZM103.691 22V11.92H107.583C107.681 11.92 107.791 11.9247 107.912 11.934C108.038 11.9387 108.164 11.9527 108.29 11.976C108.817 12.0553 109.263 12.2397 109.627 12.529C109.996 12.8137 110.273 13.173 110.46 13.607C110.651 14.041 110.747 14.5217 110.747 15.049C110.747 15.8097 110.546 16.47 110.145 17.03C109.744 17.59 109.17 17.9423 108.423 18.087L108.066 18.171H104.72V22H103.691ZM109.795 22L107.807 17.898L108.794 17.52L110.978 22H109.795ZM104.72 17.191H107.555C107.639 17.191 107.737 17.1863 107.849 17.177C107.961 17.1677 108.071 17.1513 108.178 17.128C108.523 17.0533 108.806 16.911 109.025 16.701C109.249 16.491 109.415 16.2413 109.522 15.952C109.634 15.6627 109.69 15.3617 109.69 15.049C109.69 14.7363 109.634 14.4353 109.522 14.146C109.415 13.852 109.249 13.6 109.025 13.39C108.806 13.18 108.523 13.0377 108.178 12.963C108.071 12.9397 107.961 12.9257 107.849 12.921C107.737 12.9117 107.639 12.907 107.555 12.907H104.72V17.191ZM115.68 22.21C114.929 22.21 114.287 22.0397 113.755 21.699C113.223 21.3583 112.815 20.887 112.53 20.285C112.245 19.683 112.103 18.9923 112.103 18.213C112.103 17.4197 112.248 16.7243 112.537 16.127C112.826 15.5297 113.237 15.0653 113.769 14.734C114.306 14.398 114.943 14.23 115.68 14.23C116.436 14.23 117.08 14.4003 117.612 14.741C118.149 15.077 118.557 15.546 118.837 16.148C119.122 16.7453 119.264 17.4337 119.264 18.213C119.264 19.0063 119.122 19.704 118.837 20.306C118.552 20.9033 118.142 21.37 117.605 21.706C117.068 22.042 116.427 22.21 115.68 22.21ZM115.68 21.223C116.52 21.223 117.145 20.9453 117.556 20.39C117.967 19.83 118.172 19.1043 118.172 18.213C118.172 17.2983 117.964 16.5703 117.549 16.029C117.138 15.4877 116.515 15.217 115.68 15.217C115.115 15.217 114.649 15.3453 114.28 15.602C113.916 15.854 113.643 16.2063 113.461 16.659C113.284 17.107 113.195 17.625 113.195 18.213C113.195 19.123 113.405 19.8533 113.825 20.404C114.245 20.95 114.863 21.223 115.68 21.223ZM123.965 22.21C123.214 22.21 122.572 22.0397 122.04 21.699C121.508 21.3583 121.1 20.887 120.815 20.285C120.53 19.683 120.388 18.9923 120.388 18.213C120.388 17.4197 120.533 16.7243 120.822 16.127C121.111 15.5297 121.522 15.0653 122.054 14.734C122.591 14.398 123.228 14.23 123.965 14.23C124.721 14.23 125.365 14.4003 125.897 14.741C126.434 15.077 126.842 15.546 127.122 16.148C127.407 16.7453 127.549 17.4337 127.549 18.213C127.549 19.0063 127.407 19.704 127.122 20.306C126.837 20.9033 126.427 21.37 125.89 21.706C125.353 22.042 124.712 22.21 123.965 22.21ZM123.965 21.223C124.805 21.223 125.43 20.9453 125.841 20.39C126.252 19.83 126.457 19.1043 126.457 18.213C126.457 17.2983 126.249 16.5703 125.834 16.029C125.423 15.4877 124.8 15.217 123.965 15.217C123.4 15.217 122.934 15.3453 122.565 15.602C122.201 15.854 121.928 16.2063 121.746 16.659C121.569 17.107 121.48 17.625 121.48 18.213C121.48 19.123 121.69 19.8533 122.11 20.404C122.53 20.95 123.148 21.223 123.965 21.223ZM138.109 22L138.116 17.037C138.116 16.4537 137.953 15.9963 137.626 15.665C137.304 15.329 136.894 15.161 136.394 15.161C136.11 15.161 135.832 15.2263 135.561 15.357C135.291 15.4877 135.067 15.6977 134.889 15.987C134.717 16.2763 134.63 16.6543 134.63 17.121L134.021 16.946C134.007 16.4047 134.112 15.931 134.336 15.525C134.565 15.119 134.878 14.804 135.274 14.58C135.676 14.3513 136.128 14.237 136.632 14.237C137.393 14.237 138.002 14.4727 138.459 14.944C138.917 15.4107 139.145 16.043 139.145 16.841L139.138 22H138.109ZM129.086 22V14.44H130.01V16.302H130.122V22H129.086ZM133.608 22L133.615 17.107C133.615 16.505 133.454 16.0313 133.132 15.686C132.815 15.336 132.395 15.161 131.872 15.161C131.35 15.161 130.927 15.3407 130.605 15.7C130.283 16.0547 130.122 16.5283 130.122 17.121L129.506 16.785C129.506 16.2997 129.621 15.8657 129.849 15.483C130.078 15.0957 130.391 14.7923 130.787 14.573C131.184 14.349 131.634 14.237 132.138 14.237C132.619 14.237 133.046 14.3397 133.419 14.545C133.797 14.7503 134.094 15.049 134.308 15.441C134.523 15.833 134.63 16.309 134.63 16.869L134.623 22H133.608Z" fill="#809FB8"/>
<path fill-rule="evenodd" clip-rule="evenodd" d="M9 16V13C9 11.8954 9.39052 10.9526 10.1716 10.1716C10.9526 9.39052 11.8954 9 13 9H19C20.1046 9 21.0474 9.39052 21.8284 10.1716C22.6095 10.9526 23 11.8954 23 13V19C23 20.1046 22.6095 21.0474 21.8284 21.8284C21.0474 22.6095 20.1046 23 19 23H13C11.8954 23 10.9526 22.6095 10.1716 21.8284C9.39052 21.0474 9 20.1046 9 19V16Z" fill="#FFB536"/>
</svg>
