<svg width="48" height="50" viewBox="0 0 48 50" fill="none" xmlns="http://www.w3.org/2000/svg">
<rect x="1.06862" y="12.938" width="36.3296" height="36.3296" rx="9.69212" fill="#F9FBFF" stroke="#E7E7E7" stroke-width="0.615755"/>
<path d="M8.48232 36.8662V27.1126H12.4244C12.5192 27.1126 12.6366 27.1172 12.7766 27.1262C12.9166 27.1307 13.0498 27.1443 13.1762 27.1668C13.7181 27.2526 14.1696 27.4378 14.5309 27.7222C14.8966 28.0067 15.1698 28.3657 15.3505 28.7992C15.5311 29.2327 15.6214 29.7113 15.6214 30.2351C15.6214 31.0118 15.4227 31.6824 15.0253 32.2468C14.628 32.8067 14.0319 33.1567 13.2372 33.2967L12.6615 33.3644H9.89794V36.8662H8.48232ZM14.1854 36.8662L12.2618 32.8971L13.691 32.5313L15.8043 36.8662H14.1854ZM9.89794 32.0233H12.3702C12.4605 32.0233 12.5599 32.0188 12.6682 32.0098C12.7811 32.0007 12.8872 31.9849 12.9866 31.9623C13.2756 31.8946 13.5081 31.7704 13.6842 31.5898C13.8603 31.4047 13.9868 31.1924 14.0635 30.9531C14.1403 30.7138 14.1787 30.4745 14.1787 30.2351C14.1787 29.9958 14.1403 29.7588 14.0635 29.5239C13.9868 29.2846 13.8603 29.0747 13.6842 28.894C13.5081 28.7089 13.2756 28.5825 12.9866 28.5147C12.8872 28.4876 12.7811 28.4696 12.6682 28.4605C12.5599 28.4515 12.4605 28.447 12.3702 28.447H9.89794V32.0233ZM20.5576 37.0694C19.8939 37.0694 19.3068 36.9249 18.7966 36.6359C18.2863 36.3424 17.8844 35.9405 17.5909 35.4303C17.3019 34.92 17.1574 34.333 17.1574 33.6692V30.3097C17.1574 29.6459 17.3019 29.0588 17.5909 28.5486C17.8844 28.0383 18.2863 27.6387 18.7966 27.3497C19.3068 27.0562 19.8939 26.9095 20.5576 26.9095C21.2214 26.9095 21.8084 27.0562 22.3187 27.3497C22.829 27.6387 23.2286 28.0383 23.5176 28.5486C23.8111 29.0588 23.9578 29.6459 23.9578 30.3097V33.6692C23.9578 34.333 23.8111 34.92 23.5176 35.4303C23.2286 35.9405 22.829 36.3424 22.3187 36.6359C21.8084 36.9249 21.2214 37.0694 20.5576 37.0694ZM20.5576 35.7147C20.9189 35.7147 21.2463 35.629 21.5398 35.4574C21.8378 35.2813 22.0749 35.0464 22.251 34.7529C22.4271 34.4549 22.5151 34.123 22.5151 33.7573V30.2081C22.5151 29.8468 22.4271 29.5194 22.251 29.2259C22.0749 28.9279 21.8378 28.6931 21.5398 28.5215C21.2463 28.3454 20.9189 28.2573 20.5576 28.2573C20.1964 28.2573 19.8668 28.3454 19.5687 28.5215C19.2752 28.6931 19.0404 28.9279 18.8643 29.2259C18.6882 29.5194 18.6002 29.8468 18.6002 30.2081V33.7573C18.6002 34.123 18.6882 34.4549 18.8643 34.7529C19.0404 35.0464 19.2752 35.2813 19.5687 35.4574C19.8668 35.629 20.1964 35.7147 20.5576 35.7147ZM27.4136 36.8662V28.6705L25.578 29.7881V28.2099L27.4136 27.1126H28.8563V36.8662H27.4136Z" fill="black"/>
<circle cx="37.3981" cy="11.0909" r="9.85208" fill="#4CAF50" stroke="#E7E7E7" stroke-width="0.615755"/>
<path d="M42.7859 7.34469L36.0126 14.118L32.9082 11.0136L33.7041 10.2177L36.0126 12.5206L41.9901 6.54883L42.7859 7.34469Z" fill="white"/>
</svg>
