<svg width="48" height="50" viewBox="0 0 48 50" fill="none" xmlns="http://www.w3.org/2000/svg">
<rect x="0.666215" y="12.938" width="36.3296" height="36.3296" rx="9.69212" fill="#F9FBFF" stroke="#E7E7E7" stroke-width="0.615755"/>
<path d="M8.07985 36.8662V27.1126H12.0219C12.1167 27.1126 12.2341 27.1172 12.3741 27.1262C12.5141 27.1307 12.6473 27.1443 12.7738 27.1668C13.3156 27.2526 13.7672 27.4378 14.1284 27.7222C14.4942 28.0067 14.7674 28.3657 14.948 28.7992C15.1286 29.2327 15.2189 29.7113 15.2189 30.2351C15.2189 31.0118 15.0202 31.6824 14.6229 32.2468C14.2255 32.8067 13.6295 33.1567 12.8347 33.2967L12.259 33.3644H9.49548V36.8662H8.07985ZM13.783 36.8662L11.8594 32.8971L13.2885 32.5313L15.4018 36.8662H13.783ZM9.49548 32.0233H11.9677C12.058 32.0233 12.1574 32.0188 12.2658 32.0098C12.3786 32.0007 12.4848 31.9849 12.5841 31.9623C12.8731 31.8946 13.1056 31.7704 13.2818 31.5898C13.4579 31.4047 13.5843 31.1924 13.6611 30.9531C13.7378 30.7138 13.7762 30.4745 13.7762 30.2351C13.7762 29.9958 13.7378 29.7588 13.6611 29.5239C13.5843 29.2846 13.4579 29.0747 13.2818 28.894C13.1056 28.7089 12.8731 28.5825 12.5841 28.5147C12.4848 28.4876 12.3786 28.4696 12.2658 28.4605C12.1574 28.4515 12.058 28.447 11.9677 28.447H9.49548V32.0233ZM18.4551 36.8662V28.6705L16.6195 29.7881V28.2099L18.4551 27.1126H19.8978V36.8662H18.4551ZM25.7347 37.0694C25.0709 37.0694 24.4839 36.9249 23.9736 36.6359C23.4634 36.3424 23.0615 35.9405 22.768 35.4303C22.479 34.92 22.3345 34.333 22.3345 33.6692V30.3097C22.3345 29.6459 22.479 29.0588 22.768 28.5486C23.0615 28.0383 23.4634 27.6387 23.9736 27.3497C24.4839 27.0562 25.0709 26.9095 25.7347 26.9095C26.3985 26.9095 26.9855 27.0562 27.4957 27.3497C28.006 27.6387 28.4056 28.0383 28.6946 28.5486C28.9881 29.0588 29.1349 29.6459 29.1349 30.3097V33.6692C29.1349 34.333 28.9881 34.92 28.6946 35.4303C28.4056 35.9405 28.006 36.3424 27.4957 36.6359C26.9855 36.9249 26.3985 37.0694 25.7347 37.0694ZM25.7347 35.7147C26.0959 35.7147 26.4233 35.629 26.7168 35.4574C27.0148 35.2813 27.2519 35.0464 27.428 34.7529C27.6041 34.4549 27.6922 34.123 27.6922 33.7573V30.2081C27.6922 29.8468 27.6041 29.5194 27.428 29.2259C27.2519 28.9279 27.0148 28.6931 26.7168 28.5215C26.4233 28.3454 26.0959 28.2573 25.7347 28.2573C25.3734 28.2573 25.0438 28.3454 24.7458 28.5215C24.4523 28.6931 24.2175 28.9279 24.0414 29.2259C23.8653 29.5194 23.7772 29.8468 23.7772 30.2081V33.7573C23.7772 34.123 23.8653 34.4549 24.0414 34.7529C24.2175 35.0464 24.4523 35.2813 24.7458 35.4574C25.0438 35.629 25.3734 35.7147 25.7347 35.7147Z" fill="black"/>
<circle cx="36.9958" cy="11.0909" r="9.85208" fill="#4CAF50" stroke="#E7E7E7" stroke-width="0.615755"/>
<path d="M42.3837 7.34469L35.6104 14.118L32.5059 11.0136L33.3018 10.2177L35.6104 12.5206L41.5878 6.54883L42.3837 7.34469Z" fill="white"/>
</svg>
