<svg width="47" height="49" viewBox="0 0 47 49" fill="none" xmlns="http://www.w3.org/2000/svg">
<rect x="0.307878" y="12.0071" width="36.3296" height="36.3296" rx="9.69212" fill="#F9FBFF" stroke="#E7E7E7" stroke-width="0.615755"/>
<path d="M7.72158 35.9353V26.1817H11.6636C11.7585 26.1817 11.8759 26.1863 12.0159 26.1953C12.1558 26.1998 12.289 26.2134 12.4155 26.2359C12.9573 26.3217 13.4089 26.5069 13.7701 26.7913C14.1359 27.0758 14.4091 27.4348 14.5897 27.8683C14.7703 28.3018 14.8606 28.7804 14.8606 29.3042C14.8606 30.0809 14.662 30.7515 14.2646 31.3159C13.8672 31.8758 13.2712 32.2258 12.4764 32.3658L11.9007 32.4335H9.1372V35.9353H7.72158ZM13.4247 35.9353L11.5011 31.9661L12.9303 31.6004L15.0435 35.9353H13.4247ZM9.1372 31.0924H11.6095C11.6998 31.0924 11.7991 31.0879 11.9075 31.0788C12.0204 31.0698 12.1265 31.054 12.2258 31.0314C12.5148 30.9637 12.7474 30.8395 12.9235 30.6589C13.0996 30.4738 13.226 30.2615 13.3028 30.0222C13.3795 29.7829 13.4179 29.5436 13.4179 29.3042C13.4179 29.0649 13.3795 28.8278 13.3028 28.593C13.226 28.3537 13.0996 28.1437 12.9235 27.9631C12.7474 27.778 12.5148 27.6515 12.2258 27.5838C12.1265 27.5567 12.0204 27.5387 11.9075 27.5296C11.7991 27.5206 11.6998 27.5161 11.6095 27.5161H9.1372V31.0924ZM19.7969 36.1385C19.1331 36.1385 18.5461 35.994 18.0358 35.705C17.5256 35.4115 17.1237 35.0096 16.8302 34.4994C16.5412 33.9891 16.3967 33.4021 16.3967 32.7383V29.3787C16.3967 28.715 16.5412 28.1279 16.8302 27.6177C17.1237 27.1074 17.5256 26.7078 18.0358 26.4188C18.5461 26.1253 19.1331 25.9785 19.7969 25.9785C20.4607 25.9785 21.0477 26.1253 21.558 26.4188C22.0682 26.7078 22.4678 27.1074 22.7568 27.6177C23.0503 28.1279 23.1971 28.715 23.1971 29.3787V32.7383C23.1971 33.4021 23.0503 33.9891 22.7568 34.4994C22.4678 35.0096 22.0682 35.4115 21.558 35.705C21.0477 35.994 20.4607 36.1385 19.7969 36.1385ZM19.7969 34.7838C20.1581 34.7838 20.4855 34.698 20.779 34.5265C21.0771 34.3503 21.3141 34.1155 21.4902 33.822C21.6663 33.524 21.7544 33.1921 21.7544 32.8264V29.2771C21.7544 28.9159 21.6663 28.5885 21.4902 28.295C21.3141 27.997 21.0771 27.7622 20.779 27.5906C20.4855 27.4145 20.1581 27.3264 19.7969 27.3264C19.4357 27.3264 19.106 27.4145 18.808 27.5906C18.5145 27.7622 18.2797 27.997 18.1036 28.295C17.9275 28.5885 17.8394 28.9159 17.8394 29.2771V32.8264C17.8394 33.1921 17.9275 33.524 18.1036 33.822C18.2797 34.1155 18.5145 34.3503 18.808 34.5265C19.106 34.698 19.4357 34.7838 19.7969 34.7838ZM24.6818 35.9285L24.6886 34.6687L28.9355 30.8621C29.2786 30.5596 29.5112 30.2706 29.6331 29.9951C29.7596 29.7197 29.8228 29.4442 29.8228 29.1688C29.8228 28.8211 29.746 28.5095 29.5925 28.2341C29.439 27.9541 29.2267 27.7328 28.9558 27.5703C28.6849 27.4077 28.3733 27.3264 28.0211 27.3264C27.6598 27.3264 27.337 27.4122 27.0525 27.5838C26.7725 27.7509 26.5535 27.9744 26.3955 28.2544C26.2374 28.5343 26.1607 28.8369 26.1652 29.162H24.7157C24.7157 28.5298 24.8579 27.9767 25.1424 27.5025C25.4314 27.0239 25.8265 26.6514 26.3277 26.3849C26.829 26.114 27.4024 25.9785 28.0482 25.9785C28.6623 25.9785 29.2132 26.1185 29.7009 26.3985C30.1885 26.6739 30.5724 27.0532 30.8523 27.5364C31.1368 28.0196 31.279 28.5705 31.279 29.1891C31.279 29.6361 31.2203 30.0154 31.1029 30.327C30.9855 30.6386 30.8094 30.9276 30.5746 31.194C30.3398 31.4604 30.0463 31.7494 29.6941 32.061L26.4158 34.987L26.26 34.5806H31.279V35.9285H24.6818Z" fill="black"/>
<circle cx="36.6374" cy="10.16" r="9.85208" fill="#E2201F" stroke="#E7E7E7" stroke-width="0.615755"/>
<path fill-rule="evenodd" clip-rule="evenodd" d="M36.3295 11.884C35.9703 11.884 35.6257 11.7413 35.3717 11.4873C35.1176 11.2332 34.9749 10.8887 34.9749 10.5294L34.9749 5.78806C34.9749 5.42878 35.1176 5.08422 35.3717 4.83017C35.6257 4.57612 35.9703 4.4334 36.3295 4.4334C36.6888 4.4334 37.0334 4.57612 37.2874 4.83017C37.5415 5.08422 37.6842 5.42878 37.6842 5.78806L37.6842 10.5294C37.6842 10.8887 37.5415 11.2332 37.2874 11.4873C37.0334 11.7413 36.6888 11.884 36.3295 11.884Z" fill="white"/>
<path d="M34.9749 13.9158C34.9749 13.5566 35.1176 13.212 35.3717 12.958C35.6257 12.7039 35.9703 12.5612 36.3295 12.5612C36.6888 12.5612 37.0334 12.7039 37.2874 12.958C37.5415 13.212 37.6842 13.5566 37.6842 13.9158C37.6842 14.2751 37.5415 14.6197 37.2874 14.8737C37.0334 15.1278 36.6888 15.2705 36.3295 15.2705C35.9703 15.2705 35.6257 15.1278 35.3717 14.8737C35.1176 14.6197 34.9749 14.2751 34.9749 13.9158Z" fill="white"/>
</svg>
