<svg width="48" height="50" viewBox="0 0 48 50" fill="none" xmlns="http://www.w3.org/2000/svg">
<rect x="0.534684" y="12.938" width="36.3296" height="36.3296" rx="9.69212" fill="#F9FBFF" stroke="#E7E7E7" stroke-width="0.615755"/>
<path d="M7.94838 36.8662V27.1126H11.8904C11.9853 27.1126 12.1027 27.1172 12.2427 27.1262C12.3826 27.1307 12.5159 27.1443 12.6423 27.1668C13.1842 27.2526 13.6357 27.4378 13.9969 27.7222C14.3627 28.0067 14.6359 28.3657 14.8165 28.7992C14.9971 29.2327 15.0874 29.7113 15.0874 30.2351C15.0874 31.0118 14.8888 31.6824 14.4914 32.2468C14.094 32.8067 13.498 33.1567 12.7032 33.2967L12.1275 33.3644H9.36401V36.8662H7.94838ZM13.6515 36.8662L11.7279 32.8971L13.1571 32.5313L15.2703 36.8662H13.6515ZM9.36401 32.0233H11.8363C11.9266 32.0233 12.0259 32.0188 12.1343 32.0098C12.2472 32.0007 12.3533 31.9849 12.4526 31.9623C12.7416 31.8946 12.9742 31.7704 13.1503 31.5898C13.3264 31.4047 13.4528 31.1924 13.5296 30.9531C13.6064 30.7138 13.6447 30.4745 13.6447 30.2351C13.6447 29.9958 13.6064 29.7588 13.5296 29.5239C13.4528 29.2846 13.3264 29.0747 13.1503 28.894C12.9742 28.7089 12.7416 28.5825 12.4526 28.5147C12.3533 28.4876 12.2472 28.4696 12.1343 28.4605C12.0259 28.4515 11.9266 28.447 11.8363 28.447H9.36401V32.0233ZM20.0237 37.0694C19.3599 37.0694 18.7729 36.9249 18.2626 36.6359C17.7524 36.3424 17.3505 35.9405 17.057 35.4303C16.768 34.92 16.6235 34.333 16.6235 33.6692V30.3097C16.6235 29.6459 16.768 29.0588 17.057 28.5486C17.3505 28.0383 17.7524 27.6387 18.2626 27.3497C18.7729 27.0562 19.3599 26.9095 20.0237 26.9095C20.6875 26.9095 21.2745 27.0562 21.7848 27.3497C22.295 27.6387 22.6946 28.0383 22.9836 28.5486C23.2772 29.0588 23.4239 29.6459 23.4239 30.3097V33.6692C23.4239 34.333 23.2772 34.92 22.9836 35.4303C22.6946 35.9405 22.295 36.3424 21.7848 36.6359C21.2745 36.9249 20.6875 37.0694 20.0237 37.0694ZM20.0237 35.7147C20.385 35.7147 20.7123 35.629 21.0058 35.4574C21.3039 35.2813 21.5409 35.0464 21.717 34.7529C21.8931 34.4549 21.9812 34.123 21.9812 33.7573V30.2081C21.9812 29.8468 21.8931 29.5194 21.717 29.2259C21.5409 28.9279 21.3039 28.6931 21.0058 28.5215C20.7123 28.3454 20.385 28.2573 20.0237 28.2573C19.6625 28.2573 19.3328 28.3454 19.0348 28.5215C18.7413 28.6931 18.5065 28.9279 18.3304 29.2259C18.1543 29.5194 18.0662 29.8468 18.0662 30.2081V33.7573C18.0662 34.123 18.1543 34.4549 18.3304 34.7529C18.5065 35.0464 18.7413 35.2813 19.0348 35.4574C19.3328 35.629 19.6625 35.7147 20.0237 35.7147ZM27.9092 37.0491C27.4261 37.0491 26.9722 36.9588 26.5478 36.7782C26.1233 36.593 25.7553 36.3311 25.4437 35.9925C25.1367 35.6538 24.9132 35.2542 24.7732 34.7936L26.1414 34.4143C26.2723 34.8342 26.5004 35.1571 26.8255 35.3829C27.1506 35.6041 27.5118 35.7125 27.9092 35.708C28.2659 35.7035 28.5798 35.6199 28.8507 35.4574C29.1216 35.2948 29.3339 35.0758 29.4874 34.8004C29.6409 34.5204 29.7177 34.1998 29.7177 33.8385C29.7177 33.2967 29.5484 32.8496 29.2097 32.4974C28.8755 32.1452 28.4375 31.9691 27.8957 31.9691C27.7421 31.9691 27.5841 31.9917 27.4215 32.0368C27.2635 32.082 27.1145 32.1407 26.9745 32.2129L26.3107 31.0954L29.7516 28.0541L29.9006 28.4605H25.1593V27.1126H31.0249V28.4605L28.1666 31.2105L28.1531 30.7499C28.7672 30.7499 29.3 30.8876 29.7516 31.1631C30.2031 31.434 30.5508 31.8043 30.7946 32.2739C31.043 32.739 31.1672 33.2606 31.1672 33.8385C31.1672 34.4617 31.0204 35.0148 30.7269 35.498C30.4379 35.9812 30.0473 36.3605 29.5551 36.6359C29.0674 36.9114 28.5188 37.0491 27.9092 37.0491Z" fill="black"/>
<circle cx="36.8643" cy="11.0909" r="9.85208" fill="#4CAF50" stroke="#E7E7E7" stroke-width="0.615755"/>
<path d="M42.2521 7.34469L35.4788 14.118L32.3744 11.0136L33.1703 10.2177L35.4788 12.5206L41.4563 6.54883L42.2521 7.34469Z" fill="white"/>
</svg>
