<svg width="47" height="49" viewBox="0 0 47 49" fill="none" xmlns="http://www.w3.org/2000/svg">
<rect x="0.307878" y="12.0071" width="36.3296" height="36.3296" rx="9.69212" fill="#F9FBFF" stroke="#E7E7E7" stroke-width="0.615755"/>
<path d="M7.72158 35.9353V26.1817H11.6636C11.7585 26.1817 11.8759 26.1863 12.0159 26.1953C12.1558 26.1998 12.289 26.2134 12.4155 26.2359C12.9573 26.3217 13.4089 26.5069 13.7701 26.7913C14.1359 27.0758 14.4091 27.4348 14.5897 27.8683C14.7703 28.3018 14.8606 28.7804 14.8606 29.3042C14.8606 30.0809 14.662 30.7515 14.2646 31.3159C13.8672 31.8758 13.2712 32.2258 12.4764 32.3658L11.9007 32.4335H9.1372V35.9353H7.72158ZM13.4247 35.9353L11.5011 31.9661L12.9303 31.6004L15.0435 35.9353H13.4247ZM9.1372 31.0924H11.6095C11.6998 31.0924 11.7991 31.0879 11.9075 31.0788C12.0204 31.0698 12.1265 31.054 12.2258 31.0314C12.5148 30.9637 12.7474 30.8395 12.9235 30.6589C13.0996 30.4738 13.226 30.2615 13.3028 30.0222C13.3795 29.7829 13.4179 29.5436 13.4179 29.3042C13.4179 29.0649 13.3795 28.8278 13.3028 28.593C13.226 28.3537 13.0996 28.1437 12.9235 27.9631C12.7474 27.778 12.5148 27.6515 12.2258 27.5838C12.1265 27.5567 12.0204 27.5387 11.9075 27.5296C11.7991 27.5206 11.6998 27.5161 11.6095 27.5161H9.1372V31.0924ZM19.7969 36.1385C19.1331 36.1385 18.5461 35.994 18.0358 35.705C17.5256 35.4115 17.1237 35.0096 16.8302 34.4994C16.5412 33.9891 16.3967 33.4021 16.3967 32.7383V29.3787C16.3967 28.715 16.5412 28.1279 16.8302 27.6177C17.1237 27.1074 17.5256 26.7078 18.0358 26.4188C18.5461 26.1253 19.1331 25.9785 19.7969 25.9785C20.4607 25.9785 21.0477 26.1253 21.558 26.4188C22.0682 26.7078 22.4678 27.1074 22.7568 27.6177C23.0503 28.1279 23.1971 28.715 23.1971 29.3787V32.7383C23.1971 33.4021 23.0503 33.9891 22.7568 34.4994C22.4678 35.0096 22.0682 35.4115 21.558 35.705C21.0477 35.994 20.4607 36.1385 19.7969 36.1385ZM19.7969 34.7838C20.1581 34.7838 20.4855 34.698 20.779 34.5265C21.0771 34.3503 21.3141 34.1155 21.4902 33.822C21.6663 33.524 21.7544 33.1921 21.7544 32.8264V29.2771C21.7544 28.9159 21.6663 28.5885 21.4902 28.295C21.3141 27.997 21.0771 27.7622 20.779 27.5906C20.4855 27.4145 20.1581 27.3264 19.7969 27.3264C19.4357 27.3264 19.106 27.4145 18.808 27.5906C18.5145 27.7622 18.2797 27.997 18.1036 28.295C17.9275 28.5885 17.8394 28.9159 17.8394 29.2771V32.8264C17.8394 33.1921 17.9275 33.524 18.1036 33.822C18.2797 34.1155 18.5145 34.3503 18.808 34.5265C19.106 34.698 19.4357 34.7838 19.7969 34.7838ZM29.0845 35.9353V34.2352H24.6818V32.8941L27.8517 26.1817H29.4706L26.3007 32.8941H29.0845V30.2525H30.5204V32.8941H31.489V34.2352H30.5204V35.9353H29.0845Z" fill="black"/>
<circle cx="36.6375" cy="10.16" r="9.85208" fill="#4CAF50" stroke="#E7E7E7" stroke-width="0.615755"/>
<path d="M42.0253 6.41378L35.252 13.1871L32.1476 10.0827L32.9434 9.28679L35.252 11.5897L41.2295 5.61792L42.0253 6.41378Z" fill="white"/>
</svg>
