<svg width="48" height="50" viewBox="0 0 48 50" fill="none" xmlns="http://www.w3.org/2000/svg">
<rect x="1.00087" y="12.938" width="36.3296" height="36.3296" rx="9.69212" fill="#F9FBFF" stroke="#E7E7E7" stroke-width="0.615755"/>
<path d="M8.41451 36.8662V27.1126H12.3566C12.4514 27.1126 12.5688 27.1172 12.7088 27.1262C12.8488 27.1307 12.982 27.1443 13.1084 27.1668C13.6503 27.2526 14.1018 27.4378 14.4631 27.7222C14.8288 28.0067 15.102 28.3657 15.2826 28.7992C15.4633 29.2327 15.5536 29.7113 15.5536 30.2351C15.5536 31.0118 15.3549 31.6824 14.9575 32.2468C14.5602 32.8067 13.9641 33.1567 13.1694 33.2967L12.5936 33.3644H9.83013V36.8662H8.41451ZM14.1176 36.8662L12.194 32.8971L13.6232 32.5313L15.7365 36.8662H14.1176ZM9.83013 32.0233H12.3024C12.3927 32.0233 12.492 32.0188 12.6004 32.0098C12.7133 32.0007 12.8194 31.9849 12.9188 31.9623C13.2078 31.8946 13.4403 31.7704 13.6164 31.5898C13.7925 31.4047 13.919 31.1924 13.9957 30.9531C14.0725 30.7138 14.1109 30.4745 14.1109 30.2351C14.1109 29.9958 14.0725 29.7588 13.9957 29.5239C13.919 29.2846 13.7925 29.0747 13.6164 28.894C13.4403 28.7089 13.2078 28.5825 12.9188 28.5147C12.8194 28.4876 12.7133 28.4696 12.6004 28.4605C12.492 28.4515 12.3927 28.447 12.3024 28.447H9.83013V32.0233ZM20.4898 37.0694C19.826 37.0694 19.239 36.9249 18.7288 36.6359C18.2185 36.3424 17.8166 35.9405 17.5231 35.4303C17.2341 34.92 17.0896 34.333 17.0896 33.6692V30.3097C17.0896 29.6459 17.2341 29.0588 17.5231 28.5486C17.8166 28.0383 18.2185 27.6387 18.7288 27.3497C19.239 27.0562 19.826 26.9095 20.4898 26.9095C21.1536 26.9095 21.7406 27.0562 22.2509 27.3497C22.7611 27.6387 23.1608 28.0383 23.4498 28.5486C23.7433 29.0588 23.89 29.6459 23.89 30.3097V33.6692C23.89 34.333 23.7433 34.92 23.4498 35.4303C23.1608 35.9405 22.7611 36.3424 22.2509 36.6359C21.7406 36.9249 21.1536 37.0694 20.4898 37.0694ZM20.4898 35.7147C20.8511 35.7147 21.1785 35.629 21.472 35.4574C21.77 35.2813 22.0071 35.0464 22.1832 34.7529C22.3593 34.4549 22.4473 34.123 22.4473 33.7573V30.2081C22.4473 29.8468 22.3593 29.5194 22.1832 29.2259C22.0071 28.9279 21.77 28.6931 21.472 28.5215C21.1785 28.3454 20.8511 28.2573 20.4898 28.2573C20.1286 28.2573 19.799 28.3454 19.5009 28.5215C19.2074 28.6931 18.9726 28.9279 18.7965 29.2259C18.6204 29.5194 18.5323 29.8468 18.5323 30.2081V33.7573C18.5323 34.123 18.6204 34.4549 18.7965 34.7529C18.9726 35.0464 19.2074 35.2813 19.5009 35.4574C19.799 35.629 20.1286 35.7147 20.4898 35.7147ZM28.5379 37.0694C28.0367 37.0694 27.5693 36.9678 27.1358 36.7646C26.7068 36.5569 26.3388 36.2724 26.0318 35.9112C25.7247 35.5454 25.5057 35.1255 25.3748 34.6513L26.7362 34.2856C26.813 34.5746 26.9439 34.8252 27.1291 35.0374C27.3187 35.2496 27.54 35.4145 27.7928 35.5319C28.0457 35.6448 28.3076 35.7012 28.5785 35.7012C28.9353 35.7012 29.2581 35.6154 29.5471 35.4438C29.8406 35.2722 30.0709 35.0419 30.238 34.7529C30.4096 34.4639 30.4954 34.1456 30.4954 33.7979C30.4954 33.4412 30.4073 33.1183 30.2312 32.8293C30.0596 32.5403 29.8271 32.3123 29.5336 32.1452C29.2446 31.9736 28.9262 31.8878 28.5785 31.8878C28.1812 31.8878 27.8448 31.9669 27.5693 32.1249C27.2939 32.2829 27.0794 32.4658 26.9259 32.6735L25.6931 32.24L25.9911 27.1126H31.254V28.447H26.7159L27.2916 27.9119L27.0545 31.7524L26.7768 31.3934C27.0342 31.136 27.3413 30.9396 27.698 30.8041C28.0547 30.6686 28.4092 30.6009 28.7614 30.6009C29.3665 30.6009 29.9061 30.7409 30.3802 31.0208C30.8589 31.3008 31.2359 31.6824 31.5114 32.1655C31.7868 32.6442 31.9246 33.1883 31.9246 33.7979C31.9246 34.403 31.7688 34.9539 31.4572 35.4506C31.1456 35.9428 30.7324 36.3356 30.2177 36.6291C29.7029 36.9227 29.143 37.0694 28.5379 37.0694Z" fill="black"/>
<circle cx="37.3305" cy="11.0909" r="9.85208" fill="#FFB536" stroke="#E7E7E7" stroke-width="0.615755"/>
<path d="M34.5247 14.7675C34.06 14.7675 33.6491 14.6663 33.292 14.464C32.9348 14.2586 32.6535 13.9773 32.448 13.6201C32.2457 13.2629 32.1446 12.852 32.1446 12.3873V10.0357C32.1446 9.571 32.2457 9.16009 32.448 8.80291C32.6535 8.44573 32.9348 8.16599 33.292 7.9637C33.6491 7.75824 34.06 7.65551 34.5247 7.65551C34.9893 7.65551 35.4003 7.75824 35.7574 7.9637C36.1146 8.16599 36.3944 8.44573 36.5967 8.80291C36.8021 9.16009 36.9048 9.571 36.9048 10.0357V12.3873C36.9048 12.852 36.8021 13.2629 36.5967 13.6201C36.3944 13.9773 36.1146 14.2586 35.7574 14.464C35.4003 14.6663 34.9893 14.7675 34.5247 14.7675ZM34.5247 13.8192C34.7776 13.8192 35.0067 13.7592 35.2122 13.6391C35.4208 13.5158 35.5868 13.3514 35.71 13.146C35.8333 12.9373 35.8949 12.705 35.8949 12.449V9.96453C35.8949 9.71166 35.8333 9.4825 35.71 9.27704C35.5868 9.06842 35.4208 8.90406 35.2122 8.78394C35.0067 8.66067 34.7776 8.59903 34.5247 8.59903C34.2718 8.59903 34.0411 8.66067 33.8325 8.78394C33.627 8.90406 33.4626 9.06842 33.3394 9.27704C33.2161 9.4825 33.1545 9.71166 33.1545 9.96453V12.449C33.1545 12.705 33.2161 12.9373 33.3394 13.146C33.4626 13.3514 33.627 13.5158 33.8325 13.6391C34.0411 13.7592 34.2718 13.8192 34.5247 13.8192ZM40.1583 14.7675C39.8075 14.7675 39.4803 14.6964 39.1769 14.5541C38.8766 14.4087 38.619 14.2096 38.4041 13.9567C38.1891 13.7007 38.0358 13.4067 37.9441 13.0748L38.8972 12.8188C38.9509 13.0211 39.0426 13.1965 39.1722 13.3451C39.3049 13.4937 39.4598 13.609 39.6368 13.6912C39.8138 13.7702 39.9971 13.8097 40.1868 13.8097C40.4365 13.8097 40.6625 13.7497 40.8648 13.6296C41.0703 13.5095 41.2315 13.3482 41.3484 13.146C41.4685 12.9437 41.5286 12.7208 41.5286 12.4774C41.5286 12.2277 41.4669 12.0017 41.3437 11.7994C41.2236 11.5971 41.0608 11.4375 40.8553 11.3205C40.653 11.2004 40.4302 11.1404 40.1868 11.1404C39.9086 11.1404 39.6731 11.1957 39.4803 11.3063C39.2875 11.417 39.1374 11.545 39.0299 11.6904L38.167 11.3869L38.3756 7.79775H42.0596V8.73179H38.8829L39.2859 8.35723L39.12 11.0456L38.9256 10.7943C39.1058 10.6141 39.3207 10.4766 39.5704 10.3818C39.8201 10.2869 40.0683 10.2395 40.3148 10.2395C40.7384 10.2395 41.1161 10.3375 41.448 10.5335C41.783 10.7295 42.047 10.9966 42.2398 11.3348C42.4326 11.6698 42.529 12.0507 42.529 12.4774C42.529 12.901 42.42 13.2866 42.2019 13.6343C41.9837 13.9788 41.6945 14.2538 41.3342 14.4593C40.9738 14.6648 40.5819 14.7675 40.1583 14.7675Z" fill="white"/>
</svg>
