<svg width="48" height="50" viewBox="0 0 48 50" fill="none" xmlns="http://www.w3.org/2000/svg">
<rect x="0.733903" y="12.938" width="36.3296" height="36.3296" rx="9.69212" fill="#F9FBFF" stroke="#E7E7E7" stroke-width="0.615755"/>
<path d="M8.1476 36.8662V27.1126H12.0897C12.1845 27.1126 12.3019 27.1172 12.4419 27.1262C12.5819 27.1307 12.7151 27.1443 12.8415 27.1668C13.3834 27.2526 13.8349 27.4378 14.1962 27.7222C14.5619 28.0067 14.8351 28.3657 15.0157 28.7992C15.1964 29.2327 15.2867 29.7113 15.2867 30.2351C15.2867 31.0118 15.088 31.6824 14.6906 32.2468C14.2933 32.8067 13.6972 33.1567 12.9025 33.2967L12.3267 33.3644H9.56322V36.8662H8.1476ZM13.8507 36.8662L11.9271 32.8971L13.3563 32.5313L15.4695 36.8662H13.8507ZM9.56322 32.0233H12.0355C12.1258 32.0233 12.2251 32.0188 12.3335 32.0098C12.4464 32.0007 12.5525 31.9849 12.6519 31.9623C12.9408 31.8946 13.1734 31.7704 13.3495 31.5898C13.5256 31.4047 13.652 31.1924 13.7288 30.9531C13.8056 30.7138 13.844 30.4745 13.844 30.2351C13.844 29.9958 13.8056 29.7588 13.7288 29.5239C13.652 29.2846 13.5256 29.0747 13.3495 28.894C13.1734 28.7089 12.9408 28.5825 12.6519 28.5147C12.5525 28.4876 12.4464 28.4696 12.3335 28.4605C12.2251 28.4515 12.1258 28.447 12.0355 28.447H9.56322V32.0233ZM20.2229 37.0694C19.5591 37.0694 18.9721 36.9249 18.4619 36.6359C17.9516 36.3424 17.5497 35.9405 17.2562 35.4303C16.9672 34.92 16.8227 34.333 16.8227 33.6692V30.3097C16.8227 29.6459 16.9672 29.0588 17.2562 28.5486C17.5497 28.0383 17.9516 27.6387 18.4619 27.3497C18.9721 27.0562 19.5591 26.9095 20.2229 26.9095C20.8867 26.9095 21.4737 27.0562 21.984 27.3497C22.4942 27.6387 22.8939 28.0383 23.1829 28.5486C23.4764 29.0588 23.6231 29.6459 23.6231 30.3097V33.6692C23.6231 34.333 23.4764 34.92 23.1829 35.4303C22.8939 35.9405 22.4942 36.3424 21.984 36.6359C21.4737 36.9249 20.8867 37.0694 20.2229 37.0694ZM20.2229 35.7147C20.5842 35.7147 20.9115 35.629 21.2051 35.4574C21.5031 35.2813 21.7401 35.0464 21.9163 34.7529C22.0924 34.4549 22.1804 34.123 22.1804 33.7573V30.2081C22.1804 29.8468 22.0924 29.5194 21.9163 29.2259C21.7401 28.9279 21.5031 28.6931 21.2051 28.5215C20.9115 28.3454 20.5842 28.2573 20.2229 28.2573C19.8617 28.2573 19.532 28.3454 19.234 28.5215C18.9405 28.6931 18.7057 28.9279 18.5296 29.2259C18.3535 29.5194 18.2654 29.8468 18.2654 30.2081V33.7573C18.2654 34.123 18.3535 34.4549 18.5296 34.7529C18.7057 35.0464 18.9405 35.2813 19.234 35.4574C19.532 35.629 19.8617 35.7147 20.2229 35.7147ZM28.7316 37.0694C28.0994 37.0694 27.5304 36.9204 27.0247 36.6224C26.519 36.3198 26.1171 35.9067 25.8191 35.3829C25.5255 34.8591 25.3788 34.263 25.3788 33.5947V30.4858C25.3788 29.7768 25.5255 29.1537 25.8191 28.6163C26.1171 28.079 26.528 27.6613 27.0518 27.3633C27.5801 27.0652 28.1875 26.9162 28.8738 26.9162C29.3886 26.9162 29.8717 27.0133 30.3233 27.2075C30.7749 27.4016 31.1655 27.6906 31.4951 28.0745L30.4588 29.043C30.2736 28.8037 30.0411 28.6141 29.7611 28.4741C29.4857 28.3296 29.1899 28.2573 28.8738 28.2573C28.4674 28.2573 28.1107 28.3544 27.8036 28.5486C27.4966 28.7382 27.255 28.9889 27.0789 29.3004C26.9073 29.612 26.8215 29.9461 26.8215 30.3029V32.091L26.5438 31.7795C26.8238 31.4137 27.1715 31.1247 27.5869 30.9125C28.0023 30.7002 28.4471 30.5941 28.9212 30.5941C29.5263 30.5941 30.0659 30.7364 30.54 31.0208C31.0187 31.3008 31.3935 31.6824 31.6644 32.1655C31.9399 32.6487 32.0776 33.1928 32.0776 33.7979C32.0776 34.4075 31.9241 34.9607 31.617 35.4574C31.3145 35.9496 30.9081 36.3424 30.3978 36.6359C29.8921 36.9249 29.3367 37.0694 28.7316 37.0694ZM28.7316 35.708C29.0838 35.708 29.4044 35.6222 29.6934 35.4506C29.9824 35.279 30.2127 35.0487 30.3843 34.7597C30.5559 34.4707 30.6416 34.1501 30.6416 33.7979C30.6416 33.4457 30.5559 33.1251 30.3843 32.8361C30.2172 32.5471 29.9892 32.3168 29.7002 32.1452C29.4112 31.9736 29.0906 31.8878 28.7383 31.8878C28.3861 31.8878 28.0633 31.9736 27.7698 32.1452C27.4808 32.3168 27.2505 32.5471 27.0789 32.8361C26.9073 33.1251 26.8215 33.4457 26.8215 33.7979C26.8215 34.1456 26.9073 34.4639 27.0789 34.7529C27.2505 35.0419 27.4808 35.2745 27.7698 35.4506C28.0588 35.6222 28.3794 35.708 28.7316 35.708Z" fill="black"/>
<circle cx="37.0635" cy="11.0909" r="9.85208" fill="#4CAF50" stroke="#E7E7E7" stroke-width="0.615755"/>
<path d="M42.4513 7.34469L35.678 14.118L32.5736 11.0136L33.3695 10.2177L35.678 12.5206L41.6555 6.54883L42.4513 7.34469Z" fill="white"/>
</svg>
