<svg width="47" height="50" viewBox="0 0 47 50" fill="none" xmlns="http://www.w3.org/2000/svg">
<rect x="0.466996" y="12.938" width="36.3296" height="36.3296" rx="9.69212" fill="#F9FBFF" stroke="#E7E7E7" stroke-width="0.615755"/>
<path d="M7.8807 36.8662V27.1126H11.8228C11.9176 27.1126 12.035 27.1172 12.175 27.1262C12.315 27.1307 12.4482 27.1443 12.5746 27.1668C13.1165 27.2526 13.568 27.4378 13.9293 27.7222C14.295 28.0067 14.5682 28.3657 14.7488 28.7992C14.9295 29.2327 15.0198 29.7113 15.0198 30.2351C15.0198 31.0118 14.8211 31.6824 14.4237 32.2468C14.0263 32.8067 13.4303 33.1567 12.6356 33.2967L12.0598 33.3644H9.29632V36.8662H7.8807ZM13.5838 36.8662L11.6602 32.8971L13.0894 32.5313L15.2026 36.8662H13.5838ZM9.29632 32.0233H11.7686C11.8589 32.0233 11.9582 32.0188 12.0666 32.0098C12.1795 32.0007 12.2856 31.9849 12.3849 31.9623C12.6739 31.8946 12.9065 31.7704 13.0826 31.5898C13.2587 31.4047 13.3851 31.1924 13.4619 30.9531C13.5387 30.7138 13.577 30.4745 13.577 30.2351C13.577 29.9958 13.5387 29.7588 13.4619 29.5239C13.3851 29.2846 13.2587 29.0747 13.0826 28.894C12.9065 28.7089 12.6739 28.5825 12.3849 28.5147C12.2856 28.4876 12.1795 28.4696 12.0666 28.4605C11.9582 28.4515 11.8589 28.447 11.7686 28.447H9.29632V32.0233ZM19.956 37.0694C19.2922 37.0694 18.7052 36.9249 18.195 36.6359C17.6847 36.3424 17.2828 35.9405 16.9893 35.4303C16.7003 34.92 16.5558 34.333 16.5558 33.6692V30.3097C16.5558 29.6459 16.7003 29.0588 16.9893 28.5486C17.2828 28.0383 17.6847 27.6387 18.195 27.3497C18.7052 27.0562 19.2922 26.9095 19.956 26.9095C20.6198 26.9095 21.2068 27.0562 21.7171 27.3497C22.2273 27.6387 22.627 28.0383 22.916 28.5486C23.2095 29.0588 23.3562 29.6459 23.3562 30.3097V33.6692C23.3562 34.333 23.2095 34.92 22.916 35.4303C22.627 35.9405 22.2273 36.3424 21.7171 36.6359C21.2068 36.9249 20.6198 37.0694 19.956 37.0694ZM19.956 35.7147C20.3173 35.7147 20.6446 35.629 20.9381 35.4574C21.2362 35.2813 21.4732 35.0464 21.6493 34.7529C21.8255 34.4549 21.9135 34.123 21.9135 33.7573V30.2081C21.9135 29.8468 21.8255 29.5194 21.6493 29.2259C21.4732 28.9279 21.2362 28.6931 20.9381 28.5215C20.6446 28.3454 20.3173 28.2573 19.956 28.2573C19.5948 28.2573 19.2651 28.3454 18.9671 28.5215C18.6736 28.6931 18.4388 28.9279 18.2627 29.2259C18.0866 29.5194 17.9985 29.8468 17.9985 30.2081V33.7573C17.9985 34.123 18.0866 34.4549 18.2627 34.7529C18.4388 35.0464 18.6736 35.2813 18.9671 35.4574C19.2651 35.629 19.5948 35.7147 19.956 35.7147ZM25.6199 36.8662L29.0472 28.4605H24.7055V27.1126H30.5712V28.4605L27.1506 36.8662H25.6199Z" fill="black"/>
<circle cx="36.7966" cy="11.0909" r="9.85208" fill="#4CAF50" stroke="#E7E7E7" stroke-width="0.615755"/>
<path d="M42.1844 7.34469L35.4111 14.118L32.3067 11.0136L33.1026 10.2177L35.4111 12.5206L41.3886 6.54883L42.1844 7.34469Z" fill="white"/>
</svg>
