<svg width="48" height="50" viewBox="0 0 48 50" fill="none" xmlns="http://www.w3.org/2000/svg">
<rect x="1.20003" y="12.938" width="36.3296" height="36.3296" rx="9.69212" fill="#F9FBFF" stroke="#E7E7E7" stroke-width="0.615755"/>
<path d="M8.61379 36.8662V27.1126H12.5559C12.6507 27.1126 12.7681 27.1172 12.9081 27.1262C13.048 27.1307 13.1813 27.1443 13.3077 27.1668C13.8496 27.2526 14.3011 27.4378 14.6624 27.7222C15.0281 28.0067 15.3013 28.3657 15.4819 28.7992C15.6625 29.2327 15.7529 29.7113 15.7529 30.2351C15.7529 31.0118 15.5542 31.6824 15.1568 32.2468C14.7594 32.8067 14.1634 33.1567 13.3687 33.2967L12.7929 33.3644H10.0294V36.8662H8.61379ZM14.3169 36.8662L12.3933 32.8971L13.8225 32.5313L15.9357 36.8662H14.3169ZM10.0294 32.0233H12.5017C12.592 32.0233 12.6913 32.0188 12.7997 32.0098C12.9126 32.0007 13.0187 31.9849 13.118 31.9623C13.407 31.8946 13.6396 31.7704 13.8157 31.5898C13.9918 31.4047 14.1182 31.1924 14.195 30.9531C14.2718 30.7138 14.3101 30.4745 14.3101 30.2351C14.3101 29.9958 14.2718 29.7588 14.195 29.5239C14.1182 29.2846 13.9918 29.0747 13.8157 28.894C13.6396 28.7089 13.407 28.5825 13.118 28.5147C13.0187 28.4876 12.9126 28.4696 12.7997 28.4605C12.6913 28.4515 12.592 28.447 12.5017 28.447H10.0294V32.0233ZM20.6891 37.0694C20.0253 37.0694 19.4383 36.9249 18.9281 36.6359C18.4178 36.3424 18.0159 35.9405 17.7224 35.4303C17.4334 34.92 17.2889 34.333 17.2889 33.6692V30.3097C17.2889 29.6459 17.4334 29.0588 17.7224 28.5486C18.0159 28.0383 18.4178 27.6387 18.9281 27.3497C19.4383 27.0562 20.0253 26.9095 20.6891 26.9095C21.3529 26.9095 21.9399 27.0562 22.4502 27.3497C22.9604 27.6387 23.3601 28.0383 23.649 28.5486C23.9426 29.0588 24.0893 29.6459 24.0893 30.3097V33.6692C24.0893 34.333 23.9426 34.92 23.649 35.4303C23.3601 35.9405 22.9604 36.3424 22.4502 36.6359C21.9399 36.9249 21.3529 37.0694 20.6891 37.0694ZM20.6891 35.7147C21.0504 35.7147 21.3777 35.629 21.6712 35.4574C21.9693 35.2813 22.2063 35.0464 22.3824 34.7529C22.5585 34.4549 22.6466 34.123 22.6466 33.7573V30.2081C22.6466 29.8468 22.5585 29.5194 22.3824 29.2259C22.2063 28.9279 21.9693 28.6931 21.6712 28.5215C21.3777 28.3454 21.0504 28.2573 20.6891 28.2573C20.3279 28.2573 19.9982 28.3454 19.7002 28.5215C19.4067 28.6931 19.1719 28.9279 18.9958 29.2259C18.8197 29.5194 18.7316 29.8468 18.7316 30.2081V33.7573C18.7316 34.123 18.8197 34.4549 18.9958 34.7529C19.1719 35.0464 19.4067 35.2813 19.7002 35.4574C19.9982 35.629 20.3279 35.7147 20.6891 35.7147ZM28.9675 37.0694C28.3308 37.0694 27.7663 36.943 27.2741 36.6901C26.7865 36.4327 26.4026 36.076 26.1227 35.6199C25.8472 35.1639 25.7095 34.6355 25.7095 34.035C25.7095 33.475 25.8405 32.9625 26.1024 32.4974C26.3643 32.0323 26.7549 31.6666 27.2741 31.4002L27.2471 31.8878C26.8316 31.6304 26.511 31.3098 26.2852 30.926C26.064 30.5377 25.9533 30.1042 25.9533 29.6255C25.9533 29.0701 26.082 28.5892 26.3394 28.1828C26.5968 27.7764 26.9513 27.4626 27.4028 27.2413C27.8589 27.0201 28.3805 26.9095 28.9675 26.9095C29.5545 26.9095 30.0738 27.0201 30.5253 27.2413C30.9769 27.4626 31.3314 27.7764 31.5887 28.1828C31.8461 28.5892 31.9748 29.0701 31.9748 29.6255C31.9748 30.1042 31.8687 30.5354 31.6565 30.9192C31.4442 31.3031 31.1191 31.6259 30.6811 31.8878L30.6608 31.4137C31.1756 31.6666 31.5662 32.0278 31.8326 32.4974C32.099 32.9625 32.2322 33.475 32.2322 34.035C32.2322 34.6355 32.0922 35.1639 31.8123 35.6199C31.5323 36.076 31.1462 36.4327 30.654 36.6901C30.1618 36.943 29.5996 37.0694 28.9675 37.0694ZM28.9675 35.7215C29.4913 35.7215 29.9157 35.5793 30.2409 35.2948C30.566 35.0058 30.7285 34.5859 30.7285 34.035C30.7285 33.4841 30.566 33.0641 30.2409 32.7751C29.9202 32.4816 29.4958 32.3349 28.9675 32.3349C28.4392 32.3349 28.0124 32.4816 27.6873 32.7751C27.3667 33.0641 27.2064 33.4841 27.2064 34.035C27.2064 34.5859 27.369 35.0058 27.6941 35.2948C28.0192 35.5793 28.4437 35.7215 28.9675 35.7215ZM28.9675 30.9802C29.4145 30.9802 29.7758 30.8696 30.0512 30.6483C30.3312 30.4225 30.4711 30.0816 30.4711 29.6255C30.4711 29.1695 30.3312 28.8286 30.0512 28.6028C29.7758 28.3725 29.4145 28.2573 28.9675 28.2573C28.5204 28.2573 28.1569 28.3725 27.877 28.6028C27.597 28.8286 27.457 29.1695 27.457 29.6255C27.457 30.0816 27.597 30.4225 27.877 30.6483C28.1569 30.8696 28.5204 30.9802 28.9675 30.9802Z" fill="black"/>
<circle cx="37.5296" cy="11.0909" r="9.85208" fill="#4CAF50" stroke="#E7E7E7" stroke-width="0.615755"/>
<path d="M42.9175 7.34469L36.1442 14.118L33.0398 11.0136L33.8357 10.2177L36.1442 12.5206L42.1217 6.54883L42.9175 7.34469Z" fill="white"/>
</svg>
