<svg width="48" height="50" viewBox="0 0 48 50" fill="none" xmlns="http://www.w3.org/2000/svg">
<rect x="0.933122" y="12.938" width="36.3296" height="36.3296" rx="9.69212" fill="#F9FBFF" stroke="#E7E7E7" stroke-width="0.615755"/>
<path d="M8.34682 36.8662V27.1126H12.2889C12.3837 27.1126 12.5011 27.1172 12.6411 27.1262C12.7811 27.1307 12.9143 27.1443 13.0407 27.1668C13.5826 27.2526 14.0341 27.4378 14.3954 27.7222C14.7611 28.0067 15.0343 28.3657 15.215 28.7992C15.3956 29.2327 15.4859 29.7113 15.4859 30.2351C15.4859 31.0118 15.2872 31.6824 14.8898 32.2468C14.4925 32.8067 13.8964 33.1567 13.1017 33.2967L12.526 33.3644H9.76244V36.8662H8.34682ZM14.0499 36.8662L12.1263 32.8971L13.5555 32.5313L15.6688 36.8662H14.0499ZM9.76244 32.0233H12.2347C12.325 32.0233 12.4244 32.0188 12.5327 32.0098C12.6456 32.0007 12.7517 31.9849 12.8511 31.9623C13.1401 31.8946 13.3726 31.7704 13.5487 31.5898C13.7248 31.4047 13.8513 31.1924 13.928 30.9531C14.0048 30.7138 14.0432 30.4745 14.0432 30.2351C14.0432 29.9958 14.0048 29.7588 13.928 29.5239C13.8513 29.2846 13.7248 29.0747 13.5487 28.894C13.3726 28.7089 13.1401 28.5825 12.8511 28.5147C12.7517 28.4876 12.6456 28.4696 12.5327 28.4605C12.4244 28.4515 12.325 28.447 12.2347 28.447H9.76244V32.0233ZM20.4221 37.0694C19.7584 37.0694 19.1713 36.9249 18.6611 36.6359C18.1508 36.3424 17.7489 35.9405 17.4554 35.4303C17.1664 34.92 17.0219 34.333 17.0219 33.6692V30.3097C17.0219 29.6459 17.1664 29.0588 17.4554 28.5486C17.7489 28.0383 18.1508 27.6387 18.6611 27.3497C19.1713 27.0562 19.7584 26.9095 20.4221 26.9095C21.0859 26.9095 21.6729 27.0562 22.1832 27.3497C22.6935 27.6387 23.0931 28.0383 23.3821 28.5486C23.6756 29.0588 23.8223 29.6459 23.8223 30.3097V33.6692C23.8223 34.333 23.6756 34.92 23.3821 35.4303C23.0931 35.9405 22.6935 36.3424 22.1832 36.6359C21.6729 36.9249 21.0859 37.0694 20.4221 37.0694ZM20.4221 35.7147C20.7834 35.7147 21.1108 35.629 21.4043 35.4574C21.7023 35.2813 21.9394 35.0464 22.1155 34.7529C22.2916 34.4549 22.3796 34.123 22.3796 33.7573V30.2081C22.3796 29.8468 22.2916 29.5194 22.1155 29.2259C21.9394 28.9279 21.7023 28.6931 21.4043 28.5215C21.1108 28.3454 20.7834 28.2573 20.4221 28.2573C20.0609 28.2573 19.7313 28.3454 19.4332 28.5215C19.1397 28.6931 18.9049 28.9279 18.7288 29.2259C18.5527 29.5194 18.4647 29.8468 18.4647 30.2081V33.7573C18.4647 34.123 18.5527 34.4549 18.7288 34.7529C18.9049 35.0464 19.1397 35.2813 19.4332 35.4574C19.7313 35.629 20.0609 35.7147 20.4221 35.7147ZM28.7479 26.9162C29.3756 26.9162 29.9423 27.0675 30.448 27.37C30.9538 27.6681 31.3556 28.079 31.6537 28.6028C31.9517 29.1266 32.1007 29.7249 32.1007 30.3977V33.4999C32.1007 34.2133 31.9517 34.8387 31.6537 35.3761C31.3602 35.9089 30.9492 36.3243 30.4209 36.6224C29.8971 36.9204 29.292 37.0694 28.6057 37.0694C28.0909 37.0694 27.6077 36.9723 27.1562 36.7782C26.7046 36.584 26.3118 36.295 25.9776 35.9112L27.0207 34.9426C27.2059 35.1819 27.4384 35.3738 27.7184 35.5183C27.9983 35.6628 28.2941 35.7351 28.6057 35.7351C29.0076 35.7351 29.362 35.638 29.6691 35.4438C29.9807 35.2496 30.2222 34.9968 30.3938 34.6852C30.5654 34.3736 30.6512 34.0395 30.6512 33.6828V31.8946L30.9357 32.2062C30.6557 32.5719 30.308 32.8609 29.8926 33.0732C29.4772 33.2854 29.0324 33.3915 28.5583 33.3915C27.9487 33.3915 27.4068 33.2515 26.9327 32.9716C26.4585 32.6916 26.0837 32.31 25.8083 31.8269C25.5329 31.3437 25.3951 30.7973 25.3951 30.1877C25.3951 29.5781 25.5487 29.0272 25.8557 28.535C26.1628 28.0428 26.5692 27.65 27.0749 27.3565C27.5806 27.063 28.1383 26.9162 28.7479 26.9162ZM28.7479 28.2844C28.3957 28.2844 28.0728 28.3702 27.7793 28.5418C27.4903 28.7089 27.26 28.9369 27.0885 29.2259C26.9169 29.5149 26.8311 29.8355 26.8311 30.1877C26.8311 30.5399 26.9169 30.8628 27.0885 31.1563C27.26 31.4453 27.4903 31.6756 27.7793 31.8472C28.0683 32.0188 28.3889 32.1046 28.7411 32.1046C29.0934 32.1046 29.414 32.0188 29.703 31.8472C29.9919 31.6756 30.2222 31.4453 30.3938 31.1563C30.5654 30.8628 30.6512 30.5399 30.6512 30.1877C30.6512 29.84 30.5654 29.5217 30.3938 29.2327C30.2268 28.9437 29.9987 28.7134 29.7097 28.5418C29.4207 28.3702 29.1001 28.2844 28.7479 28.2844Z" fill="black"/>
<circle cx="37.2626" cy="11.0909" r="9.85208" fill="#4CAF50" stroke="#E7E7E7" stroke-width="0.615755"/>
<path d="M42.6506 7.34469L35.8773 14.118L32.7728 11.0136L33.5687 10.2177L35.8773 12.5206L41.8547 6.54883L42.6506 7.34469Z" fill="white"/>
</svg>
